<?xml version="1.0" encoding="utf-8"?>
<svg version="1.1" width="500px" height="501.002px" viewBox="115 119 270 262" xmlns="http://www.w3.org/2000/svg">
  <desc>Created with Fabric.js 3.6.3</desc>
  <rect x="0" y="0" width="100%" height="100%" fill="none"/>
  <g transform="matrix(1 0 0 1 251.00666666666666 286.9813333333338)" style="">
    <path fill="#000000" opacity="1" d="M-124.09 10.20Q-124.09 12.53-123.44 13.45Q-122.79 14.37-120.84 14.97L-120.84 14.97L-119.70 15.29L-120.24 17.03L-133.58 17.03L-134.23 15.18L-132.93 14.86Q-131.46 14.42-130.76 13.94Q-130.05 13.45-129.75 12.50Q-129.46 11.55-129.46 9.82L-129.46 9.82L-129.46-14.68Q-129.46-17.17-130.16-18.15Q-130.87-19.13-132.93-19.72L-132.93-19.72L-134.23-20.05L-133.58-21.89L-121.65-21.89L-120.95-21.02L-121.65-20.05Q-123.01-18.26-123.55-16.25Q-124.09-14.25-124.09-11.00L-124.09-11.00L-124.09 10.20ZM-100.68 14.05L-99.81 15.62Q-101.92 17.79-105.01 17.79L-105.01 17.79Q-107.51 17.79-109.21 16.46Q-110.92 15.13-112.22 12.47L-112.22 12.47L-117.15 2.61Q-118.02 0.93-119.32-0.07Q-120.62-1.08-122.57-1.73L-122.57-1.73Q-122.68-1.78-122.76-1.97Q-122.84-2.16-122.84-2.32L-122.84-2.32Q-122.84-3.62-121.71-3.62L-121.71-3.62L-120.46-3.62L-111.62-14.90Q-110.59-16.20-110.59-17.77L-110.59-17.77Q-110.59-19.13-111.35-20.15L-111.35-20.15L-111.95-21.02L-110.97-21.89L-101.65-21.89L-101.00-20.05L-102.30-19.72Q-103.49-19.45-104.50-18.77Q-105.50-18.10-106.53-16.79L-106.53-16.79L-117.48-2.81Q-114.88-2.38-113.12-0.97Q-111.35 0.44-110.00 3.10L-110.00 3.10L-104.90 13.18Q-104.47 13.99-103.98 14.40Q-103.49 14.80-102.79 14.80L-102.79 14.80Q-101.65 14.80-100.68 14.05L-100.68 14.05Z"/>
    <path fill="#000000" opacity="1" d="M-77.53 12.04Q-79.76 15.18-82.09 16.48Q-84.42 17.79-87.13 17.79L-87.13 17.79Q-89.73 17.79-91.95 16.29Q-94.17 14.80-95.50 11.82Q-96.83 8.84-96.83 4.61L-96.83 4.61Q-96.83-0.05-95.12-3.49Q-93.41-6.93-90.24-8.77Q-87.07-10.62-82.79-10.62L-82.79-10.62Q-80.68-10.62-76.83-9.91L-76.83-9.91Q-73.58-9.37-71.95-9.26L-71.95-9.26L-71.35-8.56L-72.00-7.58Q-72.38-7.04-72.55-6.58Q-72.71-6.12-72.71-5.47L-72.71-5.47L-72.71 12.26Q-72.71 13.94-71.08 13.94L-71.08 13.94Q-69.73 13.94-68.37 12.96L-68.37 12.96L-67.34 14.37Q-68.75 15.94-70.38 16.86Q-72.00 17.79-73.36 17.79L-73.36 17.79Q-75.58 17.79-76.56 16.43Q-77.53 15.08-77.53 12.04L-77.53 12.04ZM-91.14 3.58Q-91.14 8.73-89.38 11.17Q-87.61 13.61-84.96 13.61L-84.96 13.61Q-82.79 13.61-80.89 12.39Q-79.00 11.17-77.53 8.68L-77.53 8.68L-77.53-5.95Q-80.03-7.63-82.84-7.63L-82.84-7.63Q-86.80-7.63-88.97-4.68Q-91.14-1.73-91.14 3.58L-91.14 3.58Z"/>
    <path fill="#000000" opacity="1" d="M-56.07-7.20Q-52.55-10.62-48.26-10.62L-48.26-10.62Q-44.90-10.62-42.28-8.94Q-39.65-7.26-38.18-4.27Q-36.72-1.29-36.72 2.50L-36.72 2.50Q-36.72 6.84-38.27 10.33Q-39.81 13.83-42.52 15.81Q-45.23 17.79-48.64 17.79L-48.64 17.79Q-51.84 17.79-54.06 16.32L-54.06 16.32Q-54.55 16.00-54.55 15.35L-54.55 15.35Q-54.55 14.80-54.36 14.40Q-54.17 13.99-53.74 13.99L-53.74 13.99Q-53.52 13.99-52.52 14.42Q-51.52 14.86-49.89 14.86L-49.89 14.86Q-47.78 14.86-46.07 13.39Q-44.36 11.93-43.41 9.36Q-42.47 6.78-42.47 3.58L-42.47 3.58Q-42.47 0.50-43.41-1.92Q-44.36-4.33-46.07-5.68Q-47.78-7.04-50.00-7.04L-50.00-7.04Q-53.31-7.04-56.07-4.92L-56.07-4.92L-56.07 25.43Q-56.07 27.49-55.61 28.33Q-55.15 29.17-53.79 29.49L-53.79 29.49L-52.66 29.76L-53.25 31.44L-62.68 31.44L-63.33 30.63L-62.68 29.76Q-61.71 28.35-61.33 26.84Q-60.95 25.32-60.95 22.77L-60.95 22.77L-60.95-3.62Q-60.95-4.49-61.19-4.87Q-61.44-5.25-62.09-5.41L-62.09-5.41L-64.90-6.01L-64.90-7.80Q-64.04-8.56-61.60-9.26Q-59.16-9.97-57.37-9.97L-57.37-9.97Q-56.07-9.97-56.07-7.47L-56.07-7.47L-56.07-7.20Z"/>
    <path fill="#000000" opacity="1" d="M-31.35 17.03L-31.84 15.35L-30.81 14.97Q-28.86 14.42-28.24 13.56Q-27.61 12.69-27.61 10.41L-27.61 10.41L-27.61-3.30Q-27.61-5.58-28.24-6.47Q-28.86-7.36-30.81-7.91L-30.81-7.91L-31.84-8.29L-31.35-9.91L-20.51-9.91L-19.86-9.15L-20.51-8.29Q-21.71-6.55-22.22-4.71Q-22.74-2.87-22.74 0.12L-22.74 0.12L-22.74 10.79Q-22.74 12.31-22.47 13.10Q-22.19 13.88-21.60 14.26Q-21.00 14.64-19.70 15.08L-19.70 15.08L-18.67 15.40L-19.16 17.03L-31.35 17.03ZM-7.62 13.50Q-7.13 14.26-6.75 14.61Q-6.37 14.97-5.83 14.97L-5.83 14.97Q-4.74 14.97-3.82 14.26L-3.82 14.26L-2.95 15.78Q-4.96 17.79-7.56 17.79L-7.56 17.79Q-9.78 17.79-11.25 16.59Q-12.71 15.40-14.23 12.85L-14.23 12.85L-17.97 6.62Q-18.40 5.86-19.02 5.45Q-19.65 5.05-20.24 4.78Q-20.84 4.51-21.06 4.40L-21.06 4.40Q-21.27 4.29-21.27 3.75L-21.27 3.75Q-21.27 2.66-20.35 2.66L-20.35 2.66L-19.38 2.66L-14.50-3.24Q-13.41-4.60-13.41-6.33L-13.41-6.33Q-13.41-7.31-13.79-8.23L-13.79-8.23L-14.23-9.10L-13.36-9.91L-4.53-9.91L-3.93-8.23L-4.96-7.91Q-6.15-7.63-7.10-7.01Q-8.05-6.39-8.97-5.20L-8.97-5.20L-15.75 3.37Q-12.98 4.72-11.84 6.67L-11.84 6.67L-7.62 13.50Z"/>
    <path fill="#000000" opacity="1" d="M19.59 12.04Q17.37 15.18 15.04 16.48Q12.71 17.79 10.00 17.79L10.00 17.79Q7.40 17.79 5.18 16.29Q2.95 14.80 1.63 11.82Q0.30 8.84 0.30 4.61L0.30 4.61Q0.30-0.05 2.01-3.49Q3.71-6.93 6.88-8.77Q10.05-10.62 14.34-10.62L14.34-10.62Q16.45-10.62 20.30-9.91L20.30-9.91Q23.55-9.37 25.18-9.26L25.18-9.26L25.77-8.56L25.12-7.58Q24.74-7.04 24.58-6.58Q24.42-6.12 24.42-5.47L24.42-5.47L24.42 12.26Q24.42 13.94 26.04 13.94L26.04 13.94Q27.40 13.94 28.75 12.96L28.75 12.96L29.78 14.37Q28.37 15.94 26.75 16.86Q25.12 17.79 23.77 17.79L23.77 17.79Q21.54 17.79 20.57 16.43Q19.59 15.08 19.59 12.04L19.59 12.04ZM5.99 3.58Q5.99 8.73 7.75 11.17Q9.51 13.61 12.17 13.61L12.17 13.61Q14.34 13.61 16.23 12.39Q18.13 11.17 19.59 8.68L19.59 8.68L19.59-5.95Q17.10-7.63 14.28-7.63L14.28-7.63Q10.33-7.63 8.16-4.68Q5.99-1.73 5.99 3.58L5.99 3.58Z"/>
    <path fill="#000000" opacity="1" d="M54.17 11.44Q54.34 11.28 54.66 11.28L54.66 11.28Q55.09 11.28 55.55 11.77Q56.02 12.26 56.02 12.80L56.02 12.80Q56.02 13.12 55.85 13.29L55.85 13.29Q53.96 15.45 51.44 16.62Q48.92 17.79 46.10 17.79L46.10 17.79Q42.36 17.79 39.38 15.97Q36.40 14.15 34.72 10.93Q33.03 7.70 33.03 3.64L33.03 3.64Q33.03-0.64 34.66-3.87Q36.29-7.09 39.24-8.85Q42.19-10.62 46.15-10.62L46.15-10.62Q50.32-10.62 53.01-8.58Q55.69-6.55 55.69-3.35L55.69-3.35Q55.69-1.02 54.20 0.47Q52.71 1.96 50.38 1.96L50.38 1.96Q49.35 1.96 49.35 1.36L49.35 1.36Q49.35 1.20 49.73 0.60Q50.11 0.01 50.38-0.86Q50.65-1.73 50.65-3.08L50.65-3.08Q50.65-5.25 49.27-6.52Q47.89-7.80 45.56-7.80L45.56-7.80Q42.47-7.80 40.57-4.76Q38.67-1.73 38.67 3.21L38.67 3.21Q38.67 8.25 40.92 11.20Q43.17 14.15 47.02 14.15L47.02 14.15Q50.92 14.15 54.17 11.44L54.17 11.44Z"/>
    <path fill="#000000" opacity="1" d="M69.78 7.00Q69.78 10.31 70.73 11.93Q71.68 13.56 72.95 13.96Q74.23 14.37 76.02 14.37L76.02 14.37Q78.40 14.37 79.94 12.83Q81.49 11.28 81.49 8.84L81.49 8.84Q81.49 6.62 79.76 5.08Q78.02 3.53 75.36 3.53L75.36 3.53Q73.79 3.53 72.87 3.80Q71.95 4.07 71.73 4.07L71.73 4.07Q71.41 4.07 71.25 3.75Q71.08 3.42 71.08 2.99L71.08 2.99Q71.08 2.01 72.65 1.55Q74.23 1.09 76.29 1.09L76.29 1.09Q79.65 1.09 82.09 2.18Q84.52 3.26 85.80 5.05Q87.07 6.84 87.07 9.00L87.07 9.00Q87.07 12.74 84.17 14.89Q81.27 17.03 75.09 17.03L75.09 17.03L61.22 17.03L60.62 15.35L61.76 14.97Q63.60 14.42 64.25 13.53Q64.90 12.64 64.90 10.41L64.90 10.41L64.90-3.30Q64.90-5.52 64.25-6.44Q63.60-7.36 61.76-7.91L61.76-7.91L60.62-8.29L61.22-9.91L72.06-9.91L72.71-9.15L72.06-8.29Q70.81-6.60 70.30-4.73Q69.78-2.87 69.78 0.12L69.78 0.12L69.78 7.00ZM89.13 17.03L88.64 15.35L89.78 14.97Q91.68 14.42 92.30 13.56Q92.93 12.69 92.93 10.41L92.93 10.41L92.93-3.30Q92.93-5.58 92.30-6.47Q91.68-7.36 89.78-7.91L89.78-7.91L88.64-8.29L89.13-9.91L100.13-9.91L100.73-9.15L100.13-8.29Q98.89-6.66 98.37-4.79Q97.86-2.92 97.86 0.12L97.86 0.12L97.86 10.79Q97.86 12.31 98.13 13.10Q98.40 13.88 99.00 14.29Q99.59 14.70 100.84 15.08L100.84 15.08L101.87 15.40L101.38 17.03L89.13 17.03Z"/>
    <path fill="#000000" opacity="1" d="M132.11 17.03L119.86 17.03L119.32 15.29L120.41 14.97Q122.36 14.53 122.95 13.61Q123.55 12.69 123.55 10.31L123.55 10.31L123.55 5.48Q121.98 6.73 120.08 7.43Q118.18 8.14 115.58 8.14L115.58 8.14Q111.41 8.14 109.32 6.16Q107.23 4.18 107.23 0.12L107.23 0.12L107.23-1.24Q107.23-3.84 107.15-4.95Q107.07-6.06 106.80-6.69Q106.53-7.31 105.83-8.34L105.83-8.34L105.12-9.10L105.77-9.97L112.22-10.62L112.22-0.64Q112.22 2.07 113.55 3.23Q114.88 4.40 117.37 4.40L117.37 4.40Q121.06 4.40 123.55 2.23L123.55 2.23L123.55-3.30Q123.55-5.58 122.95-6.44Q122.36-7.31 120.41-7.91L120.41-7.91L119.32-8.29L119.86-9.91L130.76-9.91L131.41-9.10L130.76-8.29Q129.51-6.60 129.02-4.76Q128.54-2.92 128.54 0.12L128.54 0.12L128.54 10.79Q128.54 12.91 129.13 13.72Q129.73 14.53 131.57 15.08L131.57 15.08L132.60 15.35L132.11 17.03Z"/>
  </g>
  <g transform="matrix(-2.0746508412885056 0.1490767813608154 -0.09890671071054097 -1.3764510389317954 249.4198194268077 336.2046284086181)">
    <path style="stroke: none; stroke-width: 1; stroke-dasharray: none; stroke-linecap: butt; stroke-dashoffset: 0; stroke-linejoin: miter; stroke-miterlimit: 4; fill: rgb(0,0,0); fill-rule: nonzero; opacity: 1;" transform=" translate(-50.1, -50.311679658516475)" d="M 91.3 45.1 c -25.1 11.4 -57.5 11.4 -82.5 0 c -0.5 -0.2 -1.1 0 -1.3 0.5 c -0.2 0.5 0 1.1 0.5 1.3 c 12.8 5.8 27.4 8.7 42.1 8.7 s 29.3 -2.9 42.1 -8.7 c 0.5 -0.2 0.7 -0.8 0.5 -1.3 C 92.4 45.1 91.8 44.9 91.3 45.1 z" stroke-linecap="round"/>
  </g>
  <g transform="matrix(1.0614918032786884 -2.5999e-16 2.5999e-16 1.0614918032786884 249.41981942680707 185.58433333333335)">
    <g style="">
      <g transform="matrix(1 0 0 1 3.826500000000003 -27.119)">
        <polygon style="stroke: none; stroke-width: 1; stroke-dasharray: none; stroke-linecap: butt; stroke-dashoffset: 0; stroke-linejoin: miter; stroke-miterlimit: 4; fill: rgb(40,73,7); fill-rule: nonzero; opacity: 1;" points="3.7025000000000006,4.577 3.7025000000000006,-4.577 -3.7025000000000006,4.577 "/>
      </g>
      <g transform="matrix(1 0 0 1 -36.224999999999994 60.2375)">
        <path style="stroke: none; stroke-width: 1; stroke-dasharray: none; stroke-linecap: butt; stroke-dashoffset: 0; stroke-linejoin: miter; stroke-miterlimit: 4; fill: rgb(40,73,7); fill-rule: nonzero; opacity: 1;" transform=" translate(-15.190999999999999, -120.7375)" d="M 14.905 119.707 c -0.218 0 -0.449 -0.026 -0.673 -0.038 c -0.319 0.816 -0.73 1.588 -1.201 2.331 h 4.32 l -0.247 -2.525 C 16.413 119.623 15.682 119.707 14.905 119.707 z" stroke-linecap="round"/>
      </g>
      <g transform="matrix(1 0 0 1 -29.55177303248619 42.94)">
        <path style="stroke: none; stroke-width: 1; stroke-dasharray: none; stroke-linecap: butt; stroke-dashoffset: 0; stroke-linejoin: miter; stroke-miterlimit: 4; fill: rgb(40,73,7); fill-rule: nonzero; opacity: 1;" transform=" translate(-21.864226967513805, -103.44)" d="M 19.982 110.617 c 1.904 -0.229 2.465 -0.957 3.194 -3.922 l 0.688 -5.528 c 0.12 -1.51 -0.638 -3.344 -1.807 -4.317 c -0.263 -0.222 -0.646 -0.449 -1.104 -0.587 c -0.167 0.811 -0.502 1.566 -0.997 2.182 c 0.733 0.717 1.251 1.717 1.43 2.83 c 0.05 0.277 0.076 0.568 0.076 0.87 c 0 1.512 -0.597 2.922 -1.61 3.838 C 20.554 107.353 20.577 109.185 19.982 110.617 z" stroke-linecap="round"/>
      </g>
      <g transform="matrix(1 0 0 1 -34.428171051750624 54.69858709677419)">
        <path style="stroke: none; stroke-width: 1; stroke-dasharray: none; stroke-linecap: butt; stroke-dashoffset: 0; stroke-linejoin: miter; stroke-miterlimit: 4; fill: rgb(40,73,7); fill-rule: nonzero; opacity: 1;" transform=" translate(-16.98782894824937, -115.19858709677419)" d="M 18.963 112.696 c -0.101 0.005 -0.197 0.012 -0.302 0.015 c -0.277 0.012 -0.574 0.025 -0.89 0.026 c 0 0 -0.001 0 -0.001 0 L 15.17 112.8 c 0.119 1.737 0.002 3.373 -0.35 4.901 c 1.044 0.006 2 -0.143 2.807 -0.447 c 0.587 -0.219 1.087 -0.504 1.493 -0.852 C 19.209 115.847 19.122 114.245 18.963 112.696 z" stroke-linecap="round"/>
      </g>
      <g transform="matrix(1 0 0 1 -35.732 24.3985)">
        <path style="stroke: none; stroke-width: 1; stroke-dasharray: none; stroke-linecap: butt; stroke-dashoffset: 0; stroke-linejoin: miter; stroke-miterlimit: 4; fill: rgb(40,73,7); fill-rule: nonzero; opacity: 1;" transform=" translate(-15.683999999999997, -84.8985)" d="M 15.539 87.75 c 0 -1.654 1.342 -3 2.99 -3 h 1.2 c 0.002 0 0.003 0.001 0.005 0.001 s 0.003 -0.001 0.005 -0.001 h 2.18 v -5.28 h -10.41 c -1.136 0 -2.06 0.924 -2.06 2.06 v 8.797 l 6.09 -0.034 V 87.75 z" stroke-linecap="round"/>
      </g>
      <g transform="matrix(1 0 0 1 -41.21880911486086 56.92450000000001)">
        <path style="stroke: none; stroke-width: 1; stroke-dasharray: none; stroke-linecap: butt; stroke-dashoffset: 0; stroke-linejoin: miter; stroke-miterlimit: 4; fill: rgb(40,73,7); fill-rule: nonzero; opacity: 1;" transform=" translate(-10.197190885139133, -117.42450000000001)" d="M 13.171 112.849 l -2.512 0.061 c 0 1.797 -0.226 3.428 -0.723 4.854 c -0.007 0.025 -0.003 0.05 -0.013 0.075 c -0.019 0.049 -0.051 0.089 -0.076 0.133 c -0.585 1.577 -1.47 2.926 -2.673 4.028 h 3.406 C 12.593 119.481 13.443 116.474 13.171 112.849 z" stroke-linecap="round"/>
      </g>
      <g transform="matrix(1 0 0 1 -38.95952913412364 41.1195)">
        <path style="stroke: none; stroke-width: 1; stroke-dasharray: none; stroke-linecap: butt; stroke-dashoffset: 0; stroke-linejoin: miter; stroke-miterlimit: 4; fill: rgb(40,73,7); fill-rule: nonzero; opacity: 1;" transform=" translate(-12.456470865876362, -101.6195)" d="M 6.952 97.914 c 0.331 0.152 0.553 0.473 0.579 0.836 c 0.026 0.364 -0.146 0.713 -0.453 0.911 c -0.775 0.503 -1.252 1.487 -1.244 2.567 c 0 1.221 0.615 2.308 1.531 2.713 c 0.268 0.118 0.47 0.348 0.554 0.628 c 0.084 0.281 0.041 0.584 -0.118 0.83 c -0.343 0.528 -0.523 1.163 -0.523 1.835 c 0.008 1.236 0.661 2.354 1.574 2.72 l 5.066 -0.123 c 0.017 -0.003 0.03 -0.013 0.047 -0.016 c 0.05 -0.006 0.096 0.01 0.145 0.011 l 3.367 -0.082 c 0.116 -0.077 0.218 -0.169 0.299 -0.271 c 0.824 -0.979 0.787 -2.828 0.205 -3.734 h -5.823 c -0.553 0 -1 -0.448 -1 -1 s 0.447 -1 1 -1 h 6.039 c 0.057 -0.037 0.118 -0.08 0.189 -0.133 c 0.662 -0.512 1.078 -1.457 1.078 -2.46 c 0 -0.185 -0.016 -0.359 -0.048 -0.534 c -0.149 -0.933 -0.65 -1.69 -1.312 -2.059 l -4.334 0.032 c -0.003 0 -0.006 0 -0.008 0 c -0.549 0 -0.996 -0.443 -1 -0.993 c 0 -0.002 0 -0.005 0 -0.008 c 0 -0.549 0.443 -0.996 0.992 -1 l 4.258 -0.032 c 0.653 -0.536 1.073 -1.441 1.066 -2.407 c -0.005 -0.898 -0.327 -1.728 -0.885 -2.278 c -0.27 -0.266 -0.715 -0.582 -1.313 -0.582 c -0.005 0 -0.009 0 -0.013 0 l -9.227 0.052 c -0.604 0 -1.052 0.324 -1.322 0.596 c -0.557 0.56 -0.874 1.39 -0.869 2.277 C 5.457 96.417 6.062 97.503 6.952 97.914 z" stroke-linecap="round"/>
      </g>
      <g transform="matrix(1 0 0 1 -47.582499999999996 57.47149999999999)">
        <path style="stroke: none; stroke-width: 1; stroke-dasharray: none; stroke-linecap: butt; stroke-dashoffset: 0; stroke-linejoin: miter; stroke-miterlimit: 4; fill: rgb(40,73,7); fill-rule: nonzero; opacity: 1;" transform=" translate(-3.8335, -117.97149999999999)" d="M 6.023 117.189 c -0.313 -0.168 -0.622 -0.349 -0.931 -0.54 c -0.021 -0.013 -0.04 -0.026 -0.06 -0.04 c -0.988 -0.603 -2.311 -1.515 -3.491 -2.666 L 0 122 h 3.637 c 1.867 -0.936 3.204 -2.263 4.03 -4 C 7.143 117.764 6.604 117.504 6.023 117.189 z" stroke-linecap="round"/>
      </g>
      <g transform="matrix(1 0 0 1 -46.72198477996571 48.498000000000026)">
        <path style="stroke: none; stroke-width: 1; stroke-dasharray: none; stroke-linecap: butt; stroke-dashoffset: 0; stroke-linejoin: miter; stroke-miterlimit: 4; fill: rgb(40,73,7); fill-rule: nonzero; opacity: 1;" transform=" translate(-4.694015220034289, -108.99800000000002)" d="M 6.128 114.935 c 0.025 0.015 0.05 0.032 0.073 0.049 c 0.254 0.156 0.507 0.304 0.769 0.444 c 0.477 0.258 0.921 0.478 1.348 0.676 c 0.229 -0.955 0.344 -2.005 0.346 -3.151 c -0.09 -0.003 -0.18 -0.014 -0.267 -0.04 c -1.824 -0.564 -3.107 -2.486 -3.12 -4.673 c 0 -0.708 0.129 -1.391 0.378 -2.021 c -1.118 -0.898 -1.821 -2.386 -1.821 -3.983 c -0.001 -0.117 0.02 -0.229 0.026 -0.344 c -1.003 1.986 -2.102 4.102 -2.607 4.869 c -0.496 0.758 -0.642 1.554 -0.443 2.431 C 1.232 111.047 3.17 113.141 6.128 114.935 z" stroke-linecap="round"/>
      </g>
      <g transform="matrix(1 0 0 1 -8.114999999999995 -27.80146958977312)">
        <path style="stroke: none; stroke-width: 1; stroke-dasharray: none; stroke-linecap: butt; stroke-dashoffset: 0; stroke-linejoin: miter; stroke-miterlimit: 4; fill: rgb(40,73,7); fill-rule: nonzero; opacity: 1;" transform=" translate(-43.301, -32.69853041022688)" d="M 69.067 27.873 C 69.067 16.668 62.243 0 43.445 0 c -18.876 0 -25.91 17.409 -25.91 28.383 v 31.872 c 17.099 6.832 34.43 6.857 51.532 0.069 V 27.873 z M 65.662 44.17 c 0 0.552 -0.447 1 -1 1 H 21.96 c -0.553 0 -1 -0.448 -1 -1 V 22.216 c 0 -0.552 0.447 -1 1 -1 h 42.702 c 0.553 0 1 0.448 1 1 V 44.17 z" stroke-linecap="round"/>
      </g>
      <g transform="matrix(1 0 0 1 3.1270000000000024 30.01)">
        <rect style="stroke: none; stroke-width: 1; stroke-dasharray: none; stroke-linecap: butt; stroke-dashoffset: 0; stroke-linejoin: miter; stroke-miterlimit: 4; fill: rgb(40,73,7); fill-rule: nonzero; opacity: 1;" x="-6.311" y="-1.468" rx="0" ry="0" width="12.622" height="2.936"/>
      </g>
      <g transform="matrix(1 0 0 1 -8.104999999999997 -27.307000000000006)">
        <path style="stroke: none; stroke-width: 1; stroke-dasharray: none; stroke-linecap: butt; stroke-dashoffset: 0; stroke-linejoin: miter; stroke-miterlimit: 4; fill: rgb(40,73,7); fill-rule: nonzero; opacity: 1;" transform=" translate(-43.311, -33.193)" d="M 22.96 43.17 h 40.702 V 23.216 H 22.96 V 43.17 z M 26.009 25.979 c 0 -0.552 0.447 -1 1 -1 h 32.936 c 0.045 0 0.083 0.02 0.126 0.026 c 0.069 0.009 0.136 0.017 0.203 0.041 c 0.068 0.024 0.125 0.06 0.185 0.097 c 0.037 0.023 0.079 0.031 0.114 0.06 c 0.014 0.011 0.02 0.028 0.033 0.039 c 0.053 0.047 0.092 0.104 0.134 0.161 c 0.036 0.049 0.075 0.095 0.1 0.149 c 0.026 0.054 0.037 0.113 0.053 0.172 c 0.018 0.069 0.038 0.134 0.041 0.205 c 0.001 0.018 0.01 0.033 0.01 0.05 v 12.979 c 0 0.552 -0.447 1 -1 1 H 27.009 c 0 0 0 0 0 0 s 0 0 0 0 c -0.122 0 -0.242 -0.027 -0.358 -0.073 c -0.044 -0.017 -0.08 -0.044 -0.12 -0.067 c -0.049 -0.027 -0.102 -0.045 -0.148 -0.082 c -0.014 -0.011 -0.02 -0.028 -0.033 -0.04 c -0.053 -0.048 -0.093 -0.104 -0.135 -0.162 c -0.036 -0.049 -0.074 -0.094 -0.1 -0.148 c -0.026 -0.055 -0.037 -0.114 -0.054 -0.173 c -0.018 -0.068 -0.037 -0.133 -0.041 -0.204 c -0.001 -0.018 -0.01 -0.033 -0.01 -0.052 V 25.979 z" stroke-linecap="round"/>
      </g>
      <g transform="matrix(1 0 0 1 -1.9504999999999981 -28.0315)">
        <polygon style="stroke: none; stroke-width: 1; stroke-dasharray: none; stroke-linecap: butt; stroke-dashoffset: 0; stroke-linejoin: miter; stroke-miterlimit: 4; fill: rgb(40,73,7); fill-rule: nonzero; opacity: 1;" points="-0.49749999999999517,5.4895 8.383499999999998,-5.4895 0.45949999999999847,-5.4895 -8.383499999999998,5.4895 "/>
      </g>
      <g transform="matrix(1 0 0 1 -13.187999999999994 -28.0315)">
        <polygon style="stroke: none; stroke-width: 1; stroke-dasharray: none; stroke-linecap: butt; stroke-dashoffset: 0; stroke-linejoin: miter; stroke-miterlimit: 4; fill: rgb(40,73,7); fill-rule: nonzero; opacity: 1;" points="0.28600000000000314,5.4895 9.129,-5.4895 -0.28699999999999726,-5.4895 -9.129,5.4895 "/>
      </g>
      <g transform="matrix(1 0 0 1 -19.725499999999997 -28.95)">
        <polygon style="stroke: none; stroke-width: 1; stroke-dasharray: none; stroke-linecap: butt; stroke-dashoffset: 0; stroke-linejoin: miter; stroke-miterlimit: 4; fill: rgb(40,73,7); fill-rule: nonzero; opacity: 1;" points="-3.6814999999999998,-4.5710000000000015 -3.6814999999999998,4.5710000000000015 3.6814999999999998,-4.5710000000000015 "/>
      </g>
      <g transform="matrix(1 0 0 1 -21.408499999999997 41.995000000000005)">
        <path style="stroke: none; stroke-width: 1; stroke-dasharray: none; stroke-linecap: butt; stroke-dashoffset: 0; stroke-linejoin: miter; stroke-miterlimit: 4; fill: rgb(40,73,7); fill-rule: nonzero; opacity: 1;" transform=" translate(-30.0075, -102.495)" d="M 23.919 85.75 c 0 0.552 -0.447 1 -1 1 h -3.18 c -0.002 0 -0.003 -0.001 -0.005 -0.001 s -0.003 0.001 -0.005 0.001 h -1.2 c -0.546 0 -0.99 0.449 -0.99 1 v 2.598 c 0.759 0.137 1.47 0.514 2.059 1.096 c 0.727 0.717 1.205 1.693 1.388 2.76 c 0.842 0.142 1.645 0.516 2.354 1.113 c 1.68 1.398 2.69 3.833 2.513 6.055 l -0.699 5.627 c -0.005 0.039 -0.012 0.077 -0.021 0.115 c -0.873 3.569 -1.956 4.874 -4.179 5.352 c 0.489 4.501 -0.031 4.991 -0.319 5.263 c -0.451 0.427 -0.984 0.789 -1.587 1.086 L 19.359 122 h 23.117 l -0.019 -39.01 H 23.919 V 85.75 z" stroke-linecap="round"/>
      </g>
      <g transform="matrix(1 0 0 1 -16.914999999999992 13.391500000000022)">
        <path style="stroke: none; stroke-width: 1; stroke-dasharray: none; stroke-linecap: butt; stroke-dashoffset: 0; stroke-linejoin: miter; stroke-miterlimit: 4; fill: rgb(40,73,7); fill-rule: nonzero; opacity: 1;" transform=" translate(-34.501000000000005, -73.89150000000002)" d="M 42.45 67.379 c -2.657 -0.037 -5.314 -0.235 -7.969 -0.588 c -2.293 2.967 -2.208 5.542 0.264 8.07 c 0.048 0.049 0.071 0.11 0.107 0.165 c 0.032 0.049 0.075 0.088 0.098 0.143 c 0.002 0.004 0.001 0.008 0.002 0.012 c 0.035 0.085 0.044 0.175 0.055 0.265 c 0.005 0.04 0.022 0.08 0.022 0.12 c 0 0.063 -0.024 0.123 -0.036 0.185 c -0.013 0.064 -0.015 0.13 -0.039 0.19 c -0.016 0.039 -0.048 0.069 -0.069 0.106 c -0.044 0.077 -0.085 0.155 -0.148 0.218 c -0.003 0.003 -0.004 0.008 -0.007 0.011 c -0.053 0.052 -0.118 0.078 -0.178 0.116 c -0.045 0.029 -0.08 0.068 -0.131 0.09 c -2.655 1.128 -5.224 2.585 -7.635 4.33 c -0.085 0.058 -0.16 0.121 -0.241 0.18 h 15.912 L 42.45 67.379 z" stroke-linecap="round"/>
      </g>
      <g transform="matrix(1 0 0 1 0.965000000000007 13.384500000000024)">
        <path style="stroke: none; stroke-width: 1; stroke-dasharray: none; stroke-linecap: butt; stroke-dashoffset: 0; stroke-linejoin: miter; stroke-miterlimit: 4; fill: rgb(40,73,7); fill-rule: nonzero; opacity: 1;" transform=" translate(-52.381, -73.88450000000003)" d="M 52.477 76.48 c -0.068 -0.029 -0.118 -0.08 -0.176 -0.121 c -0.047 -0.033 -0.1 -0.053 -0.142 -0.095 c -0.001 -0.002 -0.002 -0.004 -0.003 -0.005 c -0.087 -0.089 -0.152 -0.193 -0.201 -0.306 c -0.031 -0.073 -0.04 -0.151 -0.053 -0.228 c -0.011 -0.064 -0.029 -0.126 -0.028 -0.191 c 0.003 -0.122 0.026 -0.244 0.074 -0.359 c 0.001 -0.002 0 -0.005 0.001 -0.007 c 0.032 -0.075 0.086 -0.13 0.132 -0.192 c 0.03 -0.041 0.047 -0.089 0.084 -0.126 c 0.003 -0.003 0.005 -0.006 0.008 -0.008 c 0.001 -0.001 0.001 -0.001 0.002 -0.002 c 2.508 -2.49 2.582 -5.062 0.233 -8.062 c -2.652 0.357 -5.305 0.557 -7.958 0.599 l 0.007 13.614 h 15.855 C 57.472 78.893 54.762 77.455 52.477 76.48 z" stroke-linecap="round"/>
      </g>
      <g transform="matrix(1 0 0 1 11.468000000000004 41.995000000000005)">
        <path style="stroke: none; stroke-width: 1; stroke-dasharray: none; stroke-linecap: butt; stroke-dashoffset: 0; stroke-linejoin: miter; stroke-miterlimit: 4; fill: rgb(40,73,7); fill-rule: nonzero; opacity: 1;" transform=" translate(-62.884, -102.495)" d="M 44.476 122 h 36.834 c -2.812 -20.639 -10.819 -32.368 -18.505 -39.01 H 44.458 L 44.476 122 z M 46.232 88.042 c 0 -0.552 0.447 -1 1 -1 h 14.622 c 0.553 0 1 0.448 1 1 v 4.936 c 0 0.552 -0.447 1 -1 1 H 47.232 c -0.553 0 -1 -0.448 -1 -1 V 88.042 z" stroke-linecap="round"/>
      </g>
      <g transform="matrix(1 0 0 1 18.039500000000004 21.489999999999995)">
        <path style="stroke: none; stroke-width: 1; stroke-dasharray: none; stroke-linecap: butt; stroke-dashoffset: 0; stroke-linejoin: miter; stroke-miterlimit: 4; fill: rgb(40,73,7); fill-rule: nonzero; opacity: 1;" transform=" translate(-69.4555, -81.99)" d="M 77.599 82.99 c 0.553 0 1 -0.448 1 -1 s -0.447 -1 -1 -1 H 60.312 c 0.823 0.608 1.657 1.276 2.494 2 H 77.599 z" stroke-linecap="round"/>
      </g>
      <g transform="matrix(1 0 0 1 26.182500000000005 26.512057324185996)">
        <path style="stroke: none; stroke-width: 1; stroke-dasharray: none; stroke-linecap: butt; stroke-dashoffset: 0; stroke-linejoin: miter; stroke-miterlimit: 4; fill: rgb(40,73,7); fill-rule: nonzero; opacity: 1;" transform=" translate(-77.5985, -87.012057324186)" d="M 78.876 90.149 c -0.341 0 -0.672 -0.174 -0.859 -0.487 l -2.554 -4.274 c -0.283 -0.474 -0.129 -1.088 0.346 -1.371 c 0.471 -0.284 1.087 -0.128 1.371 0.346 l 2.554 4.274 c 0.283 0.474 0.129 1.088 -0.346 1.371 C 79.228 90.104 79.051 90.149 78.876 90.149 z" stroke-linecap="round"/>
      </g>
      <g transform="matrix(1 0 0 1 29.288499999999978 35.500367238405275)">
        <path style="stroke: none; stroke-width: 1; stroke-dasharray: none; stroke-linecap: butt; stroke-dashoffset: 0; stroke-linejoin: miter; stroke-miterlimit: 4; fill: rgb(40,73,7); fill-rule: nonzero; opacity: 1;" transform=" translate(-80.70449999999997, -96.00036723840527)" d="M 82.408 99.244 c -0.303 0 -0.601 -0.136 -0.798 -0.396 l -3.404 -4.487 c -0.334 -0.44 -0.247 -1.067 0.192 -1.401 c 0.44 -0.334 1.066 -0.247 1.401 0.192 l 3.404 4.487 c 0.334 0.44 0.247 1.067 -0.192 1.401 C 82.83 99.177 82.617 99.244 82.408 99.244 z" stroke-linecap="round"/>
      </g>
      <g transform="matrix(1 0 0 1 32.004999999999995 29.56391649377086)">
        <path style="stroke: none; stroke-width: 1; stroke-dasharray: none; stroke-linecap: butt; stroke-dashoffset: 0; stroke-linejoin: miter; stroke-miterlimit: 4; fill: rgb(40,73,7); fill-rule: nonzero; opacity: 1;" transform=" translate(-83.42099999999999, -90.06391649377086)" d="M 84.69 92.612 c -0.29 0 -0.577 -0.125 -0.774 -0.366 l -2.537 -3.096 c -0.351 -0.427 -0.287 -1.057 0.14 -1.407 c 0.426 -0.352 1.059 -0.287 1.407 0.14 l 2.537 3.096 c 0.351 0.427 0.287 1.057 -0.14 1.407 C 85.137 92.538 84.912 92.612 84.69 92.612 z" stroke-linecap="round"/>
      </g>
      <g transform="matrix(1 0 0 1 38.90000000000002 34.21301850025746)">
        <path style="stroke: none; stroke-width: 1; stroke-dasharray: none; stroke-linecap: butt; stroke-dashoffset: 0; stroke-linejoin: miter; stroke-miterlimit: 4; fill: rgb(40,73,7); fill-rule: nonzero; opacity: 1;" transform=" translate(-90.31600000000002, -94.71301850025746)" d="M 92.311 97.815 c -0.265 0 -0.528 -0.104 -0.726 -0.312 l -3.989 -4.204 c -0.38 -0.401 -0.363 -1.034 0.037 -1.414 c 0.401 -0.379 1.033 -0.363 1.414 0.037 l 3.989 4.204 c 0.38 0.401 0.363 1.034 -0.037 1.414 C 92.806 97.724 92.558 97.815 92.311 97.815 z" stroke-linecap="round"/>
      </g>
      <g transform="matrix(1 0 0 1 37.43050000000003 39.41819650291825)">
        <path style="stroke: none; stroke-width: 1; stroke-dasharray: none; stroke-linecap: butt; stroke-dashoffset: 0; stroke-linejoin: miter; stroke-miterlimit: 4; fill: rgb(40,73,7); fill-rule: nonzero; opacity: 1;" transform=" translate(-88.84650000000002, -99.91819650291825)" d="M 90.974 103.255 c -0.271 0 -0.542 -0.11 -0.739 -0.327 l -4.255 -4.673 c -0.372 -0.409 -0.343 -1.041 0.066 -1.413 c 0.408 -0.372 1.04 -0.342 1.412 0.066 l 4.255 4.673 c 0.372 0.409 0.343 1.041 -0.066 1.413 C 91.455 103.169 91.214 103.255 90.974 103.255 z" stroke-linecap="round"/>
      </g>
      <g transform="matrix(1 0 0 1 45.23449999999999 33.72037541248587)">
        <path style="stroke: none; stroke-width: 1; stroke-dasharray: none; stroke-linecap: butt; stroke-dashoffset: 0; stroke-linejoin: miter; stroke-miterlimit: 4; fill: rgb(40,73,7); fill-rule: nonzero; opacity: 1;" transform=" translate(-96.6505, -94.22037541248588)" d="M 98.879 96.83 c -0.203 0 -0.407 -0.062 -0.584 -0.189 l -4.459 -3.219 c -0.448 -0.323 -0.549 -0.948 -0.226 -1.396 s 0.947 -0.55 1.396 -0.225 l 4.459 3.219 c 0.448 0.323 0.549 0.948 0.226 1.396 C 99.495 96.686 99.19 96.83 98.879 96.83 z" stroke-linecap="round"/>
      </g>
      <g transform="matrix(1 0 0 1 36.906 25.248815878408664)">
        <path style="stroke: none; stroke-width: 1; stroke-dasharray: none; stroke-linecap: butt; stroke-dashoffset: 0; stroke-linejoin: miter; stroke-miterlimit: 4; fill: rgb(40,73,7); fill-rule: nonzero; opacity: 1;" transform=" translate(-88.322, -85.74881587840866)" d="M 90.973 88.636 c -0.2 0 -0.402 -0.06 -0.579 -0.185 l -5.305 -3.773 c -0.449 -0.32 -0.555 -0.944 -0.234 -1.395 c 0.318 -0.451 0.941 -0.557 1.395 -0.235 l 5.305 3.773 c 0.449 0.32 0.555 0.944 0.234 1.395 C 91.594 88.49 91.285 88.636 90.973 88.636 z" stroke-linecap="round"/>
      </g>
      <g transform="matrix(1 0 0 1 46.73599999999998 25.68265043931418)">
        <path style="stroke: none; stroke-width: 1; stroke-dasharray: none; stroke-linecap: butt; stroke-dashoffset: 0; stroke-linejoin: miter; stroke-miterlimit: 4; fill: rgb(40,73,7); fill-rule: nonzero; opacity: 1;" transform=" translate(-98.15199999999999, -86.18265043931419)" d="M 101.366 88.907 c -0.159 0 -0.321 -0.038 -0.472 -0.119 l -6.43 -3.448 c -0.486 -0.261 -0.67 -0.867 -0.408 -1.354 c 0.26 -0.486 0.865 -0.67 1.354 -0.409 l 6.43 3.448 c 0.486 0.261 0.67 0.867 0.408 1.354 C 102.068 88.716 101.722 88.907 101.366 88.907 z" stroke-linecap="round"/>
      </g>
      <g transform="matrix(1 0 0 1 26.184999999999988 15.003557324186012)">
        <path style="stroke: none; stroke-width: 1; stroke-dasharray: none; stroke-linecap: butt; stroke-dashoffset: 0; stroke-linejoin: miter; stroke-miterlimit: 4; fill: rgb(40,73,7); fill-rule: nonzero; opacity: 1;" transform=" translate(-77.60099999999998, -75.503557324186)" d="M 76.324 78.641 c -0.175 0 -0.352 -0.045 -0.512 -0.142 c -0.475 -0.283 -0.629 -0.897 -0.346 -1.371 l 2.553 -4.274 c 0.283 -0.474 0.898 -0.63 1.371 -0.346 c 0.475 0.283 0.629 0.897 0.346 1.371 l -2.553 4.274 C 76.995 78.467 76.664 78.641 76.324 78.641 z" stroke-linecap="round"/>
      </g>
      <g transform="matrix(1 0 0 1 29.29050000000001 6.016653237630539)">
        <path style="stroke: none; stroke-width: 1; stroke-dasharray: none; stroke-linecap: butt; stroke-dashoffset: 0; stroke-linejoin: miter; stroke-miterlimit: 4; fill: rgb(40,73,7); fill-rule: nonzero; opacity: 1;" transform=" translate(-80.7065, -66.51665323763054)" d="M 79.004 69.76 c -0.21 0 -0.423 -0.066 -0.604 -0.203 c -0.439 -0.334 -0.526 -0.961 -0.192 -1.401 l 3.404 -4.487 c 0.334 -0.439 0.959 -0.527 1.401 -0.192 c 0.439 0.334 0.526 0.961 0.192 1.401 l -3.404 4.487 C 79.605 69.624 79.307 69.76 79.004 69.76 z" stroke-linecap="round"/>
      </g>
      <g transform="matrix(1 0 0 1 32.00600000000001 11.951833220681841)">
        <path style="stroke: none; stroke-width: 1; stroke-dasharray: none; stroke-linecap: butt; stroke-dashoffset: 0; stroke-linejoin: miter; stroke-miterlimit: 4; fill: rgb(40,73,7); fill-rule: nonzero; opacity: 1;" transform=" translate(-83.422, -72.45183322068183)" d="M 82.153 75 c -0.223 0 -0.447 -0.074 -0.633 -0.227 c -0.427 -0.35 -0.49 -0.98 -0.14 -1.407 l 2.537 -3.096 c 0.35 -0.427 0.979 -0.49 1.407 -0.14 c 0.427 0.35 0.49 0.98 0.14 1.407 l -2.537 3.096 C 82.73 74.875 82.443 75 82.153 75 z" stroke-linecap="round"/>
      </g>
      <g transform="matrix(1 0 0 1 40.54200000000001 8.260324795890867)">
        <path style="stroke: none; stroke-width: 1; stroke-dasharray: none; stroke-linecap: butt; stroke-dashoffset: 0; stroke-linejoin: miter; stroke-miterlimit: 4; fill: rgb(40,73,7); fill-rule: nonzero; opacity: 1;" transform=" translate(-91.958, -68.76032479589087)" d="M 89.963 71.862 c -0.247 0 -0.495 -0.091 -0.688 -0.274 c -0.4 -0.38 -0.417 -1.013 -0.037 -1.414 l 3.989 -4.204 c 0.382 -0.4 1.014 -0.417 1.414 -0.037 s 0.417 1.013 0.037 1.414 l -3.989 4.204 C 90.492 71.757 90.228 71.862 89.963 71.862 z" stroke-linecap="round"/>
      </g>
      <g transform="matrix(1 0 0 1 37.43049999999999 1.574021121578209)">
        <path style="stroke: none; stroke-width: 1; stroke-dasharray: none; stroke-linecap: butt; stroke-dashoffset: 0; stroke-linejoin: miter; stroke-miterlimit: 4; fill: rgb(40,73,7); fill-rule: nonzero; opacity: 1;" transform=" translate(-88.84649999999999, -62.07402112157821)" d="M 86.719 65.411 c -0.24 0 -0.481 -0.086 -0.673 -0.261 c -0.409 -0.372 -0.438 -1.004 -0.066 -1.413 l 4.255 -4.673 c 0.372 -0.409 1.005 -0.438 1.412 -0.066 c 0.409 0.372 0.438 1.004 0.066 1.413 l -4.255 4.673 C 87.261 65.301 86.991 65.411 86.719 65.411 z" stroke-linecap="round"/>
      </g>
      <g transform="matrix(1 0 0 1 45.75050000000002 10.404233955917014)">
        <path style="stroke: none; stroke-width: 1; stroke-dasharray: none; stroke-linecap: butt; stroke-dashoffset: 0; stroke-linejoin: miter; stroke-miterlimit: 4; fill: rgb(40,73,7); fill-rule: nonzero; opacity: 1;" transform=" translate(-97.16650000000001, -70.90423395591702)" d="M 94.938 73.514 c -0.311 0 -0.616 -0.144 -0.812 -0.415 c -0.323 -0.448 -0.223 -1.073 0.226 -1.396 l 4.459 -3.219 c 0.445 -0.324 1.072 -0.222 1.396 0.225 c 0.323 0.448 0.223 1.073 -0.226 1.396 l -4.459 3.219 C 95.345 73.453 95.141 73.514 94.938 73.514 z" stroke-linecap="round"/>
      </g>
      <g transform="matrix(1 0 0 1 36.90600000000001 17.141608100175056)">
        <path style="stroke: none; stroke-width: 1; stroke-dasharray: none; stroke-linecap: butt; stroke-dashoffset: 0; stroke-linejoin: miter; stroke-miterlimit: 4; fill: rgb(40,73,7); fill-rule: nonzero; opacity: 1;" transform=" translate(-88.322, -77.64160810017506)" d="M 85.67 80.528 c -0.313 0 -0.621 -0.146 -0.815 -0.42 c -0.32 -0.45 -0.215 -1.074 0.234 -1.395 l 5.305 -3.773 c 0.453 -0.319 1.076 -0.215 1.395 0.235 c 0.32 0.45 0.215 1.074 -0.234 1.395 l -5.305 3.773 C 86.073 80.468 85.87 80.528 85.67 80.528 z" stroke-linecap="round"/>
      </g>
      <g transform="matrix(1 0 0 1 46.73600000000002 16.29327289912122)">
        <path style="stroke: none; stroke-width: 1; stroke-dasharray: none; stroke-linecap: butt; stroke-dashoffset: 0; stroke-linejoin: miter; stroke-miterlimit: 4; fill: rgb(40,73,7); fill-rule: nonzero; opacity: 1;" transform=" translate(-98.15200000000002, -76.79327289912122)" d="M 94.938 79.517 c -0.356 0 -0.702 -0.191 -0.882 -0.527 c -0.262 -0.487 -0.078 -1.093 0.408 -1.354 l 6.43 -3.448 c 0.487 -0.26 1.094 -0.078 1.354 0.409 c 0.262 0.487 0.078 1.093 -0.408 1.354 l -6.43 3.448 C 95.259 79.479 95.097 79.517 94.938 79.517 z" stroke-linecap="round"/>
      </g>
      <g transform="matrix(1 0 0 1 30.27900000000001 23.554576117531234)">
        <path style="stroke: none; stroke-width: 1; stroke-dasharray: none; stroke-linecap: butt; stroke-dashoffset: 0; stroke-linejoin: miter; stroke-miterlimit: 4; fill: rgb(40,73,7); fill-rule: nonzero; opacity: 1;" transform=" translate(-81.69500000000001, -84.05457611753124)" d="M 82.45 85.875 c -0.27 0 -0.538 -0.108 -0.735 -0.323 l -1.511 -1.641 c -0.374 -0.406 -0.349 -1.039 0.058 -1.413 c 0.407 -0.373 1.039 -0.348 1.413 0.059 l 1.511 1.641 c 0.374 0.406 0.349 1.039 -0.058 1.413 C 82.935 85.788 82.692 85.875 82.45 85.875 z" stroke-linecap="round"/>
      </g>
      <g transform="matrix(1 0 0 1 30.448999999999998 18.201607524842103)">
        <path style="stroke: none; stroke-width: 1; stroke-dasharray: none; stroke-linecap: butt; stroke-dashoffset: 0; stroke-linejoin: miter; stroke-miterlimit: 4; fill: rgb(40,73,7); fill-rule: nonzero; opacity: 1;" transform=" translate(-81.865, -78.7016075248421)" d="M 80.938 81.106 c -0.188 0 -0.38 -0.053 -0.55 -0.165 c -0.461 -0.304 -0.588 -0.924 -0.284 -1.385 l 1.852 -2.809 c 0.304 -0.46 0.923 -0.589 1.386 -0.285 c 0.461 0.304 0.588 0.924 0.284 1.385 l -1.852 2.809 C 81.581 80.948 81.263 81.106 80.938 81.106 z" stroke-linecap="round"/>
      </g>
      <g transform="matrix(1 0 0 1 49.076499999999996 21.075000000000003)">
        <path style="stroke: none; stroke-width: 1; stroke-dasharray: none; stroke-linecap: butt; stroke-dashoffset: 0; stroke-linejoin: miter; stroke-miterlimit: 4; fill: rgb(40,73,7); fill-rule: nonzero; opacity: 1;" transform=" translate(-100.49249999999999, -81.575)" d="M 102.832 82.575 h -4.679 c -0.553 0 -1 -0.448 -1 -1 s 0.447 -1 1 -1 h 4.679 c 0.553 0 1 0.448 1 1 S 103.385 82.575 102.832 82.575 z" stroke-linecap="round"/>
      </g>
      <g transform="matrix(1 0 0 1 39.971 21.075000000000003)">
        <path style="stroke: none; stroke-width: 1; stroke-dasharray: none; stroke-linecap: butt; stroke-dashoffset: 0; stroke-linejoin: miter; stroke-miterlimit: 4; fill: rgb(40,73,7); fill-rule: nonzero; opacity: 1;" transform=" translate(-91.387, -81.575)" d="M 92.811 82.575 h -2.848 c -0.553 0 -1 -0.448 -1 -1 s 0.447 -1 1 -1 h 2.848 c 0.553 0 1 0.448 1 1 S 93.364 82.575 92.811 82.575 z" stroke-linecap="round"/>
      </g>
    </g>
  </g>
  <g transform="matrix(1 0 0 1 249.53333333333336 364.13033333333397)" style="">
    <path fill="#000000" opacity="1" d="M-47.00 11.71C-46.92 11.79-46.83 11.79-46.71 11.79C-46.71 12.17-46.75 12.58-46.75 12.95C-46.75 13.58-46.46 15.07-45.67 15.07C-43.72 15.07-43.64 11.54-43.14 9.51C-41.65 3.20-40.19-3.07-38.57-9.41C-38.37-10.49-37.66-11.70-37.66-12.78C-37.66-13.56-38.20-14.02-39.49-14.02C-40.11-14.02-40.57-13.81-40.90-13.11C-43.80-7.22-46.58-1.36-49.57 4.49C-49.74 4.82-50.24 5.15-50.61 5.53C-50.86 5.07-51.23 4.65-51.27 4.28C-51.56 1.29-51.85-1.74-52.19-4.73C-52.31-6.55-52.39-8.38-52.60-10.12C-52.77-11.41-53.64-11.90-54.88-11.90C-56.25-11.90-56.63-11.12-56.71-10.04L-57.54-4.93C-58.12-0.95-58.78 2.95-59.20 6.98C-59.24 7.19-59.24 7.35-59.24 7.56C-59.24 9.05-58.70 11.71-57.42 11.71C-56.59 11.50-56.25 10.17-56.13 9.14L-54.80-1.36C-54.72-1.99-54.34-2.69-54.14-3.40C-53.06 0.75-52.64 4.99-51.85 9.22C-51.81 9.68-51.23 10.05-50.90 10.55C-50.53 10.13-49.99 9.84-49.82 9.43C-48.45 6.40-47.37 3.33-45.92 0.21C-45.84-0.04-45.50-0.12-45.26-0.33C-45.17-0.08-44.97 0.17-44.97 0.38C-44.97 1.08-45.13 1.79-45.26 2.50Z"/>
    <path fill="#000000" opacity="1" d="M-37.66 6.98C-37.66 10.51-36.00 12.41-33.22 12.41C-29.40 12.41-25.92 7.43-25.92 3.33C-25.92 1.96-26.21 0.59-26.79-0.78C-26.95-1.07-27.41-1.32-27.70-1.61C-28.37-1.28-28.70-1.07-28.70-0.45C-28.70 0.55-28.12 1.38-28.12 2.25C-28.12 4.53-29.57 7.27-30.81 9.43C-31.10 9.92-32.27 10.17-33.05 10.51C-33.39 9.88-34.09 9.26-34.09 8.64L-34.09 8.51C-33.51 5.86-32.93 3.12-30.32 0.92C-30.15 0.84-30.07 0.55-30.07 0.30C-30.07-0.45-30.98-0.78-31.93-0.78C-35.54-0.78-37.41 5.15-37.66 6.98Z"/>
    <path fill="#000000" opacity="1" d="M-8.32 10.05C-9.44 7.52-11.35 4.36-11.35 2.95C-11.35 1.42-9.44-0.74-8.32-2.77C-8.28-2.90-8.24-3.11-8.24-3.31C-8.24-3.94-8.65-3.94-8.98-3.94C-9.86-3.94-10.19-2.90-10.69-2.40C-11.56-1.53-12.60-0.78-13.22 0.13C-12.80-2.24-12.43-4.56-12.14-6.88L-12.14-7.30C-12.14-8.50-12.80-9.17-13.92-9.17C-14.88-9.17-15.33-8.46-15.50-7.05C-15.75-4.89-16.00-2.69-16.37-0.49C-16.70-1.45-17.66-2.32-18.07-3.94C-18.07-5.47-20.31-5.35-20.52-5.35C-21.43-5.35-21.64-3.73-21.64-3.02C-21.64-1.24-20.02 0.38-20.02 1.62C-20.02 2.04-20.19 2.45-20.44 2.87C-21.89 5.28-23.43 7.64-24.75 10.09C-25.42 11.29-25.79 12.62-26.33 13.99C-26.17 14.32-25.96 14.74-25.88 14.74C-25.54 14.74-25.05 14.49-24.88 14.28C-23.22 11.67-21.73 8.97-20.15 6.40C-19.86 5.90-19.32 5.48-18.82 5.07C-18.82 5.07-17.66 4.11-16.87 2.70C-17.28 5.36-17.82 7.97-18.41 10.88C-18.11 11.75-18.11 13.49-16.25 13.49C-15.38 13.49-15.17 12.75-15.17 11.83C-15.17 11.54-15.38 11.25-15.38 10.96C-15.38 10.88-15.38 10.84-15.33 10.75C-15.00 8.80-14.55 6.85-14.21 4.90C-13.51 6.98-13.09 6.52-12.51 7.48C-11.72 8.80-11.10 10.21-10.27 11.46C-9.98 11.92-9.36 12.00-8.86 12.17C-8.61 11.71-8.24 11.09-8.24 10.55C-8.24 10.38-8.28 10.17-8.32 10.05Z"/>
    <path fill="#000000" opacity="1" d="M-6.58 8.55C-6.41 11.09-6.08 13.33-3.09 13.33C-1.47 13.33 1.02 12.00 1.02 10.26C1.02 9.88 0.81 9.63 0.35 9.63C-0.35 9.63-1.10 10.13-1.85 10.21C-3.38 10.21-3.30 8.97-3.30 8.18C-3.30 6.15-1.18 5.61-0.19 3.82C0.60 2.66 2.05 0.46 2.05-0.87C2.05-2.44 0.98-3.31-0.44-3.31C-4.59-3.31-6.45 4.32-6.58 8.55ZM0.44 0.05C-0.10 1.04-1.02 2.99-1.72 2.99C-1.81 2.99-2.14 2.54-2.14 2.41C-1.81 1.50-1.06-0.99-0.35-0.99C-0.02-0.99 0.19-0.45 0.44 0.05Z"/>
    <path fill="#000000" opacity="1" d="M19.94 3.04C19.82 3.04 19.73 2.99 19.69 2.99L19.69 2.62C19.69 1.50 18.90 0.63 18.53 0.63C16.79 0.63 16.16 2.08 15.09 3.37C14.67 3.87 14.13 4.11 13.67 4.70C13.59 3.66 13.22 1.71 12.68 1.71C11.52 1.71 10.27 3.53 9.07 4.45C8.78 4.74 8.28 4.74 7.82 4.94C7.78 4.53 7.66 4.11 7.66 3.74C7.66 2.99 7.91 2.33 7.91 1.67C7.91 0.79 7.66-0.16 6.70-0.16C5.79-0.16 4.92 0.17 4.71 1.25C4.05 4.61 3.42 7.89 2.88 11.17L2.88 11.46C2.88 12.66 3.51 13.41 4.00 13.41C4.67 13.41 5.58 12.25 5.96 11.04C6.87 7.97 8.94 5.11 11.60 3.41C11.68 3.74 11.85 4.07 11.85 4.45C11.85 5.73 11.27 7.06 11.27 8.35C11.27 8.72 11.52 9.09 11.68 9.47C12.10 9.30 12.68 9.18 12.93 8.80C14.38 6.89 15.54 4.78 17.08 3.08C17.24 2.91 17.62 2.91 17.87 2.83C17.91 3.08 17.99 3.37 17.99 3.62L17.08 7.68C16.66 9.47 16.16 11.29 15.79 13.16C15.79 13.49 16.16 13.91 16.33 14.32C16.66 14.03 17.20 13.78 17.28 13.41C18.61 10.38 19.07 6.48 19.94 3.04Z"/>
    <path fill="#000000" opacity="1" d=""/>
    <path fill="#000000" opacity="1" d="M37.04-3.60C37.00-3.69 37.00-3.85 36.91-3.98C36.87-3.98 36.75-3.90 36.71-3.90C36.21-4.14 35.42-4.31 35.34-4.64C35.17-5.18 34.55-7.92 34.55-8.50L34.55-8.63C36.04-11.24 38.03-13.69 39.36-16.35C39.61-16.84 39.74-17.34 39.74-17.88C39.74-19.58 38.49-21.12 36.96-21.12C35.79-21.12 34.80-20.16 34.18-18.46C34.01-18.46 32.72-13.90 32.47-12.90C30.69-5.56 28.49 2.04 28.24 9.63C28.24 11.21 28.66 12.91 29.20 14.45C29.57 15.15 30.90 15.61 31.60 15.61C32.97 15.61 34.47 14.36 35.05 12.66C36.50 8.39 37.83 3.99 38.16-0.62C38.28-2.19 39.69-2.73 41.11-3.90C41.19-3.94 41.27-4.14 41.27-4.27C41.27-4.52 41.02-4.60 40.77-4.60C40.73-4.60 40.65-4.56 40.61-4.56C39.40-4.23 38.24-3.98 37.04-3.60ZM31.39 9.38L33.01-1.03C33.01-1.28 33.22-1.53 33.22-1.82C33.22-2.03 33.18-2.24 33.18-2.40C33.18-2.90 33.30-3.27 34.18-3.27C35.34-3.27 36.58-2.15 36.58-0.99C36.58-0.91 36.54-0.78 36.54-0.70C35.92 3.49 34.96 7.93 33.35 11.58C33.18 11.96 32.64 12.12 32.31 12.37C31.89 11.75 31.60 11.50 31.60 10.63C31.60 10.21 31.64 9.80 31.64 9.38ZM36.00-15.27C36.25-16.35 36.46-17.38 36.79-18.30C36.91-18.63 37.45-18.88 37.87-19.17C38.12-18.75 38.62-18.21 38.62-17.88L38.62-17.84C38.24-16.80 37.33-14.23 36.50-14.23C36.25-14.23 36.13-14.98 36.00-15.27Z"/>
    <path fill="#000000" opacity="1" d="M49.20-0.16L49.20-0.58C49.20-1.86 48.74-2.48 47.75-2.48C47.16-2.48 45.75-2.24 45.09-1.57C42.35 0.50 41.27 3.33 41.27 6.40C41.27 8.43 41.60 9.97 43.55 11.25C43.89 11.46 44.30 11.54 44.76 11.54C46.63 11.54 49.32 9.97 49.78 8.43C49.78 8.02 49.61 7.81 49.12 7.81C48.08 7.81 47.04 9.01 46.04 9.01C44.84 9.01 44.47 8.22 44.47 6.98C44.47 4.82 44.97 2.74 46.33 1.00C46.58 0.67 46.83 0.42 47.12 0.42C47.58 0.42 47.75 1.17 48.53 1.96C48.99 1.17 49.12 0.71 49.20-0.16Z"/>
    <path fill="#000000" opacity="1" d="M51.85 8.55C52.02 11.09 52.35 13.33 55.34 13.33C56.96 13.33 59.45 12.00 59.45 10.26C59.45 9.88 59.24 9.63 58.78 9.63C58.08 9.63 57.33 10.13 56.59 10.21C55.05 10.21 55.13 8.97 55.13 8.18C55.13 6.15 57.25 5.61 58.25 3.82C59.03 2.66 60.49 0.46 60.49-0.87C60.49-2.44 59.41-3.31 58.00-3.31C53.85-3.31 51.98 4.32 51.85 8.55ZM58.87 0.05C58.33 1.04 57.42 2.99 56.71 2.99C56.63 2.99 56.29 2.54 56.29 2.41C56.63 1.50 57.37-0.99 58.08-0.99C58.41-0.99 58.62-0.45 58.87 0.05Z"/>
  </g>
</svg>