<svg xmlns="http://www.w3.org/2000/svg" xmlns:xlink="http://www.w3.org/1999/xlink" version="1.1" width="110" height="130" xml:space="preserve" style=""><rect id="backgroundrect" width="100%" height="100%" x="0" y="0" fill="none" stroke="none" style="" class=""/>
	<desc>Created with Fabric.js 3.6.3</desc>
	<defs>
</defs>


	<g class="currentLayer" style=""><title>Layer 1</title><g id="svg_2" class="">
<g style="" stroke-width="0" id="svg_3">
		<g stroke-width="0" id="svg_4">
<polygon style="stroke: none; stroke-width: 1; stroke-dasharray: none; stroke-linecap: butt; stroke-dashoffset: 0; stroke-linejoin: miter; stroke-miterlimit: 4; fill: rgb(40,73,7); fill-rule: nonzero; opacity: 1;" points="62.56964719295502,40.29211163520813 62.56964719295502,30.575207948684692 54.709280371665955,40.29211163520813 " stroke-width="0" id="svg_5"/>
</g>
	<g stroke-width="0" id="svg_6">
<path style="stroke: none; stroke-width: 1; stroke-dasharray: none; stroke-linecap: butt; stroke-dashoffset: 0; stroke-linejoin: miter; stroke-miterlimit: 4; fill: rgb(40,73,7); fill-rule: nonzero; opacity: 1;" d="M15.821535207232216,127.06799796100313 c-0.23140521311475415,0 -0.4766098196721313,-0.02759878688524591 -0.7143839836065574,-0.04033668852459021 c-0.33861588524590197,0.86617731147541 -0.7748890163934431,1.6856489836065578 -1.2748516557377048,2.4743373934426227 h4.585644590163934 l-0.2621884754098363,-2.680266803278688 C17.422264846576496,126.9788326495277 16.646314338379767,127.06799796100313 15.821535207232216,127.06799796100313 z" stroke-linecap="round" stroke-width="0" id="svg_7"/>
</g>
	<g stroke-width="0" id="svg_8">
<path style="stroke: none; stroke-width: 1; stroke-dasharray: none; stroke-linecap: butt; stroke-dashoffset: 0; stroke-linejoin: miter; stroke-miterlimit: 4; fill: rgb(40,73,7); fill-rule: nonzero; opacity: 1;" d="M21.210728728740065,117.41903811708303 c2.0210803934426225,-0.24308162295081967 2.616577295081967,-1.015847655737705 3.3904048196721313,-4.163170852459016 l0.7303063606557376,-5.86792668852459 c0.12737901639344262,-1.6028526229508198 -0.6772317704918037,-3.5496285901639344 -1.91811568852459,-4.582460114754098 c-0.2791723442622952,-0.23565118032786891 -0.685723704918033,-0.4766098196721313 -1.171886950819672,-0.6230956885245909 c-0.17726913114754111,0.8608698524590169 -0.5328688852459015,1.662296163934426 -1.0583073278688524,2.316175114754098 c0.7780734918032787,0.7610896229508199 1.3279262459016392,1.8225814262295081 1.5179332786885251,3.0040218032786883 c0.053074590163934454,0.2940332295081966 0.08067337704918039,0.6029273442622951 0.08067337704918039,0.9234978688524588 c0,1.6049756065573773 -0.6337106065573775,3.1016790491803277 -1.709001803278689,4.074005540983606 C21.817902040215472,113.95432887118139 21.842316351690897,115.89898185478796 21.210728728740065,117.41903811708303 z" stroke-linecap="round" stroke-width="0" id="svg_9"/>
</g>
	<g stroke-width="0" id="svg_10">
<path style="stroke: none; stroke-width: 1; stroke-dasharray: none; stroke-linecap: butt; stroke-dashoffset: 0; stroke-linejoin: miter; stroke-miterlimit: 4; fill: rgb(40,73,7); fill-rule: nonzero; opacity: 1;" d="M20.12906865261985,119.6258838517104 c-0.10721067213114756,0.0053074590163934435 -0.20911388524590172,0.012737901639344268 -0.32057052459016405,0.015922377049180328 c-0.2940332295081966,0.012737901639344268 -0.6092962950819673,0.02653729508196723 -0.9447277049180328,0.02759878688524591 c0,0 -0.0010614918032786883,0 -0.0010614918032786883,0 L16.102830242783796,119.7362789992514 c0.12631752459016393,1.8438112622950824 0.0021229836065573783,3.580411852459016 -0.3715221311475412,5.2023713278688515 c1.1081974426229508,0.006368950819672138 2.122983606557377,-0.15179332786885252 2.9796074918032778,-0.4744868360655739 c0.6230956885245909,-0.23246670491803278 1.1538415901639343,-0.534991868852459 1.5848072622950824,-0.9043910163934431 C20.390195636226423,122.97064452384154 20.297845849341172,121.2701346549891 20.12906865261985,119.6258838517104 z" stroke-linecap="round" stroke-width="0" id="svg_11"/>
</g>
	<g stroke-width="0" id="svg_12">
<path style="stroke: none; stroke-width: 1; stroke-dasharray: none; stroke-linecap: butt; stroke-dashoffset: 0; stroke-linejoin: miter; stroke-miterlimit: 4; fill: rgb(40,73,7); fill-rule: nonzero; opacity: 1;" d="M16.494520978116725,93.1459091979616 c0,-1.7557074426229509 1.4245219999999998,-3.1844754098360655 3.1738604918032784,-3.1844754098360655 h1.273790163934426 c0.0021229836065573783,0 0.003184475409836067,0.0010614918032786883 0.0053074590163934435,0.0010614918032786883 s0.003184475409836067,-0.0010614918032786883 0.0053074590163934435,-0.0010614918032786883 h2.314052131147541 v-5.604676721311475 h-11.050129672131147 c-1.2058546885245902,0 -2.186673114754098,0.9808184262295083 -2.186673114754098,2.186673114754098 v9.337943393442623 l6.464485081967212,-0.03609072131147543 V93.1459091979616 z" stroke-linecap="round" stroke-width="0" id="svg_13"/>
</g>
	<g stroke-width="0" id="svg_14">
<path style="stroke: none; stroke-width: 1; stroke-dasharray: none; stroke-linecap: butt; stroke-dashoffset: 0; stroke-linejoin: miter; stroke-miterlimit: 4; fill: rgb(40,73,7); fill-rule: nonzero; opacity: 1;" d="M13.980908029162862,119.78829093184032 l-2.6664674098360654,0.06475100000000003 c0,1.9075007704918032 -0.23989714754098374,3.6387939016393442 -0.7674585737704921,5.152481213114753 c-0.007430442622950823,0.02653729508196723 -0.003184475409836067,0.053074590163934454 -0.01379939344262296,0.07961188524590167 c-0.020168344262295104,0.052013098360655784 -0.05413608196721313,0.09447277049180336 -0.08067337704918039,0.1411784098360656 c-0.6209727049180328,1.6739725737704916 -1.5603929508196719,3.1059250163934427 -2.837367590163934,4.275688983606557 h3.6154410819672127 C13.367365766867806,126.82810457118458 14.269633799654684,123.63619871872558 13.980908029162862,119.78829093184032 z" stroke-linecap="round" stroke-width="0" id="svg_15"/>
</g>
	<g stroke-width="0" id="svg_16">
<path style="stroke: none; stroke-width: 1; stroke-dasharray: none; stroke-linecap: butt; stroke-dashoffset: 0; stroke-linejoin: miter; stroke-miterlimit: 4; fill: rgb(40,73,7); fill-rule: nonzero; opacity: 1;" d="M7.379491279078081,103.9349111738147 c0.35135378688524616,0.16134675409836077 0.587004967213115,0.5020856229508197 0.6146037540983609,0.8874071475409836 c0.02759878688524591,0.3863830163934429 -0.1549778032786885,0.7568436557377052 -0.4808557868852461,0.9670190327868856 c-0.8226561475409836,0.5339303770491804 -1.3289877377049184,1.5784383114754097 -1.3204958032786884,2.724849459016393 c0,1.2960814918032786 0.6528174590163937,2.4499230819672126 1.6251439508196723,2.8798272622950822 c0.2844798032786887,0.12525603278688532 0.4989011475409837,0.3693991475409838 0.5880664590163934,0.666616852459017 c0.08916531147540994,0.2982791967213115 0.04352116393442627,0.6199112131147546 -0.12525603278688532,0.8810381967213116 c-0.3640916885245903,0.5604676721311476 -0.555160213114754,1.2345149672131146 -0.555160213114754,1.9478374590163932 c0.00849193442622951,1.3120038688524591 0.701646081967213,2.498751704918033 1.6707880983606556,2.8872577049180332 l5.377517475409835,-0.13056349180327875 c0.01804536065573772,-0.003184475409836067 0.03184475409836067,-0.01379939344262296 0.049890114754098394,-0.016983868852459033 c0.053074590163934454,-0.006368950819672138 0.10190321311475409,0.010614918032786894 0.15391631147541,0.011676409836065585 l3.574042901639344,-0.0870423278688525 c0.1231330491803279,-0.08173486885245906 0.23140521311475415,-0.17939211475409841 0.317386049180328,-0.28766427868852457 c0.8746692459016393,-1.0392004754098358 0.8353940491803278,-3.0018988196721312 0.2176058196721312,-3.9636103934426226 h-6.181066770491803 c-0.587004967213115,0 -1.0614918032786884,-0.4755483278688527 -1.0614918032786884,-1.0614918032786884 s0.4744868360655739,-1.0614918032786884 1.0614918032786884,-1.0614918032786884 h6.410348999999999 c0.06050503278688527,-0.0392751967213115 0.12525603278688532,-0.08491934426229512 0.20062195081967213,-0.1411784098360656 c0.7027075737704921,-0.5434838032786886 1.1442881639344262,-1.546593557377049 1.1442881639344262,-2.611269836065574 c0,-0.1963759836065574 -0.016983868852459033,-0.38107555737704946 -0.05095160655737707,-0.5668366229508196 c-0.15816227868852464,-0.9903718524590167 -0.689969672131148,-1.7939211475409835 -1.3926772459016392,-2.1856116229508196 l-4.600505475409835,0.03396773770491806 c-0.003184475409836067,0 -0.006368950819672138,0 -0.00849193442622951,0 c-0.5827590000000002,0 -1.0572458360655737,-0.4702408688524592 -1.0614918032786884,-1.0540613606557376 c0,-0.0021229836065573783 0,-0.0053074590163934435 0,-0.00849193442622951 c0,-0.5827590000000002 0.4702408688524592,-1.0572458360655737 1.0529998688524589,-1.0614918032786884 l4.519832098360656,-0.03396773770491806 c0.6931541475409839,-0.5689596065573774 1.1389807049180327,-1.5296096885245904 1.131550262295082,-2.555010770491803 c-0.0053074590163934435,-0.9532196393442623 -0.3471078196721313,-1.8342578360655744 -0.9394202459016392,-2.4180783278688525 c-0.2866027868852461,-0.2823568196721312 -0.7589666393442623,-0.6177882295081972 -1.393738737704918,-0.6177882295081972 c-0.0053074590163934435,0 -0.009553426229508203,0 -0.01379939344262296,0 l-9.794384868852458,0.05519757377049181 c-0.6411410491803281,0 -1.1166893770491804,0.3439233442622953 -1.4032921639344262,0.6326491147540989 c-0.5912509344262296,0.5944354098360655 -0.9277438360655744,1.475473606557377 -0.9224363770491806,2.4170168360655735 C5.79256103317644,102.34585794430649 6.434763574160058,103.49863804266715 7.379491279078081,103.9349111738147 z" stroke-linecap="round" stroke-width="0" id="svg_17"/>
</g>
	<g stroke-width="0" id="svg_18">
<path style="stroke: none; stroke-width: 1; stroke-dasharray: none; stroke-linecap: butt; stroke-dashoffset: 0; stroke-linejoin: miter; stroke-miterlimit: 4; fill: rgb(40,73,7); fill-rule: nonzero; opacity: 1;" d="M6.3933650914962925,124.39516846790912 c-0.33224693442622955,-0.17833062295081967 -0.6602479016393445,-0.3704606393442627 -0.9882488688524588,-0.5732055737704917 c-0.022291327868852476,-0.01379939344262296 -0.04245967213114759,-0.02759878688524591 -0.06368950819672131,-0.04245967213114759 c-1.0487539016393441,-0.6400795573770496 -2.4531075573770487,-1.6081600819672126 -3.7056678852459015,-2.8299371475409836 L-3.9651240624216655e-8,129.50200553348287 h3.86064568852459 c1.9818051967213113,-0.9935563278688522 3.4010197377049183,-2.402155950819672 4.277811967213115,-4.245967213114754 C7.582235911168425,125.00552625479435 7.0100918292012295,124.72953838594191 6.3933650914962925,124.39516846790912 z" stroke-linecap="round" stroke-width="0" id="svg_19"/>
</g>
	<g stroke-width="0" id="svg_20">
<path style="stroke: none; stroke-width: 1; stroke-dasharray: none; stroke-linecap: butt; stroke-dashoffset: 0; stroke-linejoin: miter; stroke-miterlimit: 4; fill: rgb(40,73,7); fill-rule: nonzero; opacity: 1;" d="M6.504821839525704,122.00256114898343 c0.02653729508196723,0.015922377049180328 0.053074590163934454,0.03396773770491806 0.07748890163934422,0.052013098360655784 c0.26961891803278687,0.16559272131147548 0.5381763442622948,0.32269350819672127 0.8162871967213113,0.47130236065573783 c0.5063315901639344,0.2738648852459019 0.9776339508196721,0.5073930819672127 1.430890950819672,0.7175684590163935 c0.24308162295081967,-1.0137246721311475 0.3651531803278691,-2.1282910655737703 0.3672761639344265,-3.344760672131147 c-0.09553426229508205,-0.003184475409836067 -0.191068524590164,-0.014860885245901644 -0.2834183114754099,-0.04245967213114759 c-1.9361610491803276,-0.5986813770491808 -3.298055032786885,-2.6388686229508203 -3.311854426229508,-4.9603511967213105 c0,-0.7515361967213112 0.13693244262295093,-1.4765350983606558 0.4012439016393443,-2.1452749344262294 c-1.1867478360655737,-0.9532196393442623 -1.9329765737704918,-2.532719442622951 -1.9329765737704918,-4.227921852459016 c-0.0010614918032786883,-0.12419454098360665 0.02122983606557378,-0.24308162295081967 0.02759878688524591,-0.3651531803278691 c-1.0646762786885244,2.1081227213114753 -2.231255770491803,4.35423937704918 -2.767309131147541,5.168403590163933 c-0.5264999344262296,0.8046107868852457 -0.6814777377049184,1.6495582622950824 -0.4702408688524592,2.5804865737704916 C1.3077579706732365,117.87548101783591 3.3649290854273204,120.09824485390146 6.504821839525704,122.00256114898343 z" stroke-linecap="round" stroke-width="0" id="svg_21"/>
</g>
	<g stroke-width="0" id="svg_22">
<path style="stroke: none; stroke-width: 1; stroke-dasharray: none; stroke-linecap: butt; stroke-dashoffset: 0; stroke-linejoin: miter; stroke-miterlimit: 4; fill: rgb(40,73,7); fill-rule: nonzero; opacity: 1;" d="M73.31405563316429,29.586961139675225 C73.31405563316429,17.692945483937507 66.07043556759055,1.0688833640415396e-7 46.11651264955776,1.0688833640415396e-7 c-20.036719278688523,0 -27.503252622950818,18.479510803278686 -27.503252622950818,30.128321852459013 v33.83186675409836 c18.150448344262294,7.2521119999999994 36.547162786885245,7.2786492950819675 54.70079560655737,0.07324293442622959 V29.586961139675225 zM69.69967604300035,46.886093057707996 c0,0.5859434754098364 -0.4744868360655739,1.0614918032786884 -1.0614918032786884,1.0614918032786884 H23.31036125611513 c-0.587004967213115,0 -1.0614918032786884,-0.4755483278688527 -1.0614918032786884,-1.0614918032786884 V23.58210200852767 c0,-0.5859434754098364 0.4744868360655739,-1.0614918032786884 1.0614918032786884,-1.0614918032786884 h45.32782298360655 c0.587004967213115,0 1.0614918032786884,0.4755483278688527 1.0614918032786884,1.0614918032786884 V46.886093057707996 z" stroke-linecap="round" stroke-width="0" id="svg_23"/>
</g>
	<g stroke-width="0" id="svg_24">
<rect style="stroke: none; stroke-width: 1; stroke-dasharray: none; stroke-linecap: butt; stroke-dashoffset: 0; stroke-linejoin: miter; stroke-miterlimit: 4; fill: rgb(40,73,7); fill-rule: nonzero; opacity: 1;" x="-189.86602724257384" y="-115.8015040482402" rx="0" ry="0" width="12.621999740600582" height="2.936000108718871" transform="matrix(1.0614918032786884,0,0,1.0614918032786884,252.73910429565953,217.4397023497268) " stroke-width="0" id="svg_25"/>
</g>
	<g stroke-width="0" id="svg_26">
<path style="stroke: none; stroke-width: 1; stroke-dasharray: none; stroke-linecap: butt; stroke-dashoffset: 0; stroke-linejoin: miter; stroke-miterlimit: 4; fill: rgb(40,73,7); fill-rule: nonzero; opacity: 1;" d="M24.37185079180267,45.824602210629905 h43.204839377049176 V24.64359476800695 H24.37185079180267 V45.824602210629905 zM27.608339299999415,27.576496620465974 c0,-0.5859434754098364 0.4744868360655739,-1.0614918032786884 1.0614918032786884,-1.0614918032786884 h34.96129403278688 c0.04776713114754102,0 0.08810381967213118,0.02122983606557378 0.13374796721311472,0.02759878688524591 c0.07324293442622959,0.009553426229508203 0.14436288524590168,0.01804536065573772 0.2154828360655738,0.04352116393442627 c0.07218144262295086,0.025475803278688525 0.13268647540983605,0.06368950819672131 0.1963759836065574,0.10296470491803286 c0.0392751967213115,0.024414311475409855 0.0838578524590164,0.03290624590163933 0.1210100655737705,0.06368950819672131 c0.014860885245901644,0.011676409836065585 0.02122983606557378,0.029721770491803287 0.035029229508196764,0.04139818032786888 c0.05625906557377053,0.049890114754098394 0.09765724590163948,0.11039514754098366 0.1422399016393443,0.17090018032786894 c0.038213704918032804,0.052013098360655784 0.07961188524590167,0.10084172131147542 0.10614918032786885,0.15816227868852464 c0.02759878688524591,0.05732055737704921 0.0392751967213115,0.11994857377049187 0.05625906557377053,0.18257659016393443 c0.01910685245901638,0.07324293442622959 0.04033668852459021,0.1422399016393443 0.04352116393442627,0.2176058196721312 c0.0010614918032786883,0.01910685245901638 0.010614918032786894,0.035029229508196764 0.010614918032786894,0.053074590163934454 v13.777102114754095 c0,0.5859434754098364 -0.4744868360655739,1.0614918032786884 -1.0614918032786884,1.0614918032786884 H28.669831103278085 c0,0 0,0 0,0 s0,0 0,0 c-0.129502,0 -0.25688101639344285,-0.02866027868852461 -0.3800140655737707,-0.07748890163934422 c-0.04670563934426232,-0.01804536065573772 -0.08491934426229512,-0.04670563934426232 -0.12737901639344262,-0.07111995081967214 c-0.052013098360655784,-0.02866027868852461 -0.10827216393442622,-0.04776713114754102 -0.15710078688524595,-0.0870423278688525 c-0.014860885245901644,-0.011676409836065585 -0.02122983606557378,-0.029721770491803287 -0.035029229508196764,-0.04245967213114759 c-0.05625906557377053,-0.05095160655737707 -0.09871873770491811,-0.11039514754098366 -0.14330139344262302,-0.1719616721311476 c-0.038213704918032804,-0.052013098360655784 -0.07855039344262296,-0.09978022950819682 -0.10614918032786885,-0.15710078688524595 c-0.02759878688524591,-0.0583820491803279 -0.0392751967213115,-0.1210100655737705 -0.05732055737704921,-0.18363808196721323 c-0.01910685245901638,-0.07218144262295086 -0.0392751967213115,-0.1411784098360656 -0.04352116393442627,-0.21654432786885244 c-0.0010614918032786883,-0.01910685245901638 -0.010614918032786894,-0.035029229508196764 -0.010614918032786894,-0.05519757377049181 V27.576496620465974 z" stroke-linecap="round" stroke-width="0" id="svg_27"/>
</g>
	<g stroke-width="0" id="svg_28">
<polygon style="stroke: none; stroke-width: 1; stroke-dasharray: none; stroke-linecap: butt; stroke-dashoffset: 0; stroke-linejoin: miter; stroke-miterlimit: 4; fill: rgb(40,73,7); fill-rule: nonzero; opacity: 1;" points="51.97913205623627,40.29211163520813 61.40622556209564,28.637982606887817 52.99497067928314,28.637982606887817 43.608206152915955,40.29211163520813 " stroke-width="0" id="svg_29"/>
</g>
	<g stroke-width="0" id="svg_30">
<polygon style="stroke: none; stroke-width: 1; stroke-dasharray: none; stroke-linecap: butt; stroke-dashoffset: 0; stroke-linejoin: miter; stroke-miterlimit: 4; fill: rgb(40,73,7); fill-rule: nonzero; opacity: 1;" points="40.88229978084564,40.29211163520813 50.26906430721283,28.637982606887817 40.27405393123627,28.637982606887817 30.888357520103455,40.29211163520813 " stroke-width="0" id="svg_31"/>
</g>
	<g stroke-width="0" id="svg_32">
<polygon style="stroke: none; stroke-width: 1; stroke-dasharray: none; stroke-linecap: butt; stroke-dashoffset: 0; stroke-linejoin: miter; stroke-miterlimit: 4; fill: rgb(40,73,7); fill-rule: nonzero; opacity: 1;" points="29.731329321861267,28.637982606887817 29.731329321861267,38.34214520454407 37.54709470272064,28.637982606887817 " stroke-width="0" id="svg_33"/>
</g>
	<g stroke-width="0" id="svg_34">
<path style="stroke: none; stroke-width: 1; stroke-dasharray: none; stroke-linecap: butt; stroke-dashoffset: 0; stroke-linejoin: miter; stroke-miterlimit: 4; fill: rgb(40,73,7); fill-rule: nonzero; opacity: 1;" d="M25.389822629730844,91.02292112101031 c0,0.5859434754098364 -0.4744868360655739,1.0614918032786884 -1.0614918032786884,1.0614918032786884 h-3.3755439344262292 c-0.0021229836065573783,0 -0.003184475409836067,-0.0010614918032786883 -0.0053074590163934435,-0.0010614918032786883 s-0.003184475409836067,0.0010614918032786883 -0.0053074590163934435,0.0010614918032786883 h-1.273790163934426 c-0.5795745245901639,0 -1.0508768852459016,0.4766098196721313 -1.0508768852459016,1.0614918032786884 v2.7577557049180323 c0.805672278688525,0.14542437704918038 1.5603929508196719,0.5456067868852457 2.1856116229508196,1.1633950163934426 c0.7717045409836065,0.7610896229508199 1.2790976229508195,1.7971056229508195 1.4733506229508198,2.9297173770491804 c0.8937760983606557,0.15073183606557383 1.746154016393443,0.5477297704918037 2.498751704918033,1.1814403770491801 c1.7833062295081967,1.4839655409836068 2.855412950819672,4.068698081967213 2.667528901639344,6.427332868852458 l-0.7419827704918036,5.9730143770491795 c-0.0053074590163934435,0.04139818032786888 -0.012737901639344268,0.08173486885245906 -0.022291327868852476,0.12207155737704922 c-0.9266823442622949,3.788464245901639 -2.0762779672131146,5.173711049180328 -4.435974245901639,5.68110413114754 c0.5190694918032787,4.7777746065573785 -0.03290624590163933,5.297905590163934 -0.33861588524590197,5.586631360655737 c-0.4787328032786886,0.453257 -1.0445079344262294,0.8375170327868854 -1.6845874918032788,1.1527800983606558 L20.549420006780025,129.50199898986276 h24.53850601639344 l-0.020168344262295104,-41.408795245901636 H25.389822629730844 V91.02292112101031 z" stroke-linecap="round" stroke-width="0" id="svg_35"/>
</g>
	<g stroke-width="0" id="svg_36">
<path style="stroke: none; stroke-width: 1; stroke-dasharray: none; stroke-linecap: butt; stroke-dashoffset: 0; stroke-linejoin: miter; stroke-miterlimit: 4; fill: rgb(40,73,7); fill-rule: nonzero; opacity: 1;" d="M45.0603274954415,71.52225559170745 c-2.820383721311475,-0.0392751967213115 -5.64076744262295,-0.2494505737704919 -8.459028180327868,-0.6241571803278686 c-2.4340007049180326,3.1494461803278693 -2.343773901639344,5.882787573770491 0.28023383606557367,8.566238852459016 c0.05095160655737707,0.052013098360655784 0.07536591803278689,0.1167640983606558 0.11357962295081975,0.17514614754098373 c0.03396773770491806,0.052013098360655784 0.07961188524590167,0.09341127868852465 0.10402619672131155,0.15179332786885252 c0.0021229836065573783,0.0042459672131147565 0.0010614918032786883,0.00849193442622951 0.0021229836065573783,0.012737901639344268 c0.03715221311475412,0.09022680327868865 0.04670563934426232,0.18576106557377053 0.0583820491803279,0.2812953278688524 c0.0053074590163934435,0.04245967213114759 0.023352819672131164,0.08491934426229512 0.023352819672131164,0.12737901639344262 c0,0.06687398360655741 -0.025475803278688525,0.13056349180327875 -0.038213704918032804,0.1963759836065574 c-0.01379939344262296,0.06793547540983612 -0.015922377049180328,0.13799393442622962 -0.04139818032786888,0.20168344262295088 c-0.016983868852459033,0.04139818032786888 -0.05095160655737707,0.07324293442622959 -0.07324293442622959,0.11251813114754099 c-0.04670563934426232,0.08173486885245906 -0.09022680327868865,0.1645312295081968 -0.15710078688524595,0.23140521311475415 c-0.003184475409836067,0.003184475409836067 -0.0042459672131147565,0.00849193442622951 -0.007430442622950823,0.011676409836065585 c-0.05625906557377053,0.05519757377049181 -0.12525603278688532,0.08279636065573774 -0.1889455409836066,0.1231330491803279 c-0.04776713114754102,0.03078326229508196 -0.08491934426229512,0.07218144262295086 -0.13905542622950817,0.09553426229508205 c-2.818260737704918,1.1973627540983607 -5.545233180327869,2.7439563114754093 -8.104489918032785,4.596259508196721 c-0.09022680327868865,0.061566524590163964 -0.1698386885245903,0.12844050819672137 -0.25581952459016394,0.191068524590164 h16.89045757377049 L45.0603274954415,71.52225559170745 z" stroke-linecap="round" stroke-width="0" id="svg_37"/>
</g>
	<g stroke-width="0" id="svg_38">
<path style="stroke: none; stroke-width: 1; stroke-dasharray: none; stroke-linecap: butt; stroke-dashoffset: 0; stroke-linejoin: miter; stroke-miterlimit: 4; fill: rgb(40,73,7); fill-rule: nonzero; opacity: 1;" d="M55.70390467312134,81.18289651022252 c-0.07218144262295086,-0.03078326229508196 -0.12525603278688532,-0.08491934426229512 -0.1868225573770492,-0.12844050819672137 c-0.049890114754098394,-0.035029229508196764 -0.10614918032786885,-0.05625906557377053 -0.15073183606557383,-0.10084172131147542 c-0.0010614918032786883,-0.0021229836065573783 -0.0021229836065573783,-0.0042459672131147565 -0.003184475409836067,-0.0053074590163934435 c-0.09234978688524596,-0.09447277049180336 -0.16134675409836077,-0.2048679180327869 -0.2133598524590164,-0.32481649180327904 c-0.03290624590163933,-0.07748890163934422 -0.04245967213114759,-0.16028526229508203 -0.05625906557377053,-0.24202013114754106 c-0.011676409836065585,-0.06793547540983612 -0.03078326229508196,-0.13374796721311472 -0.029721770491803287,-0.20274493442622965 c0.003184475409836067,-0.129502 0.02759878688524591,-0.259004 0.07855039344262296,-0.38107555737704946 c0.0010614918032786883,-0.0021229836065573783 0,-0.0053074590163934435 0.0010614918032786883,-0.007430442622950823 c0.03396773770491806,-0.07961188524590167 0.09128829508196726,-0.13799393442622962 0.1401169180327869,-0.20380642622950818 c0.03184475409836067,-0.04352116393442627 0.049890114754098394,-0.09447277049180336 0.08916531147540994,-0.13374796721311472 c0.003184475409836067,-0.003184475409836067 0.0053074590163934435,-0.006368950819672138 0.00849193442622951,-0.00849193442622951 c0.0010614918032786883,-0.0010614918032786883 0.0010614918032786883,-0.0010614918032786883 0.0021229836065573783,-0.0021229836065573783 c2.6622214426229505,-2.6431145901639344 2.740771836065574,-5.373271508196721 0.2473275901639344,-8.557746918032786 c-2.815076262295082,0.378952573770492 -5.631214016393442,0.5912509344262296 -8.447351770491803,0.6358335901639346 l0.007430442622950823,14.451149409836065 h16.829952540983605 C61.00605623049839,83.74427623153397 58.129413443613146,82.21785101841922 55.70390467312134,81.18289651022252 z" stroke-linecap="round" stroke-width="0" id="svg_39"/>
</g>
	<g stroke-width="0" id="svg_40">
<path style="stroke: none; stroke-width: 1; stroke-dasharray: none; stroke-linecap: butt; stroke-dashoffset: 0; stroke-linejoin: miter; stroke-miterlimit: 4; fill: rgb(40,73,7); fill-rule: nonzero; opacity: 1;" d="M47.21091050437309,129.50199898986276 h39.09898908196721 c-2.9849149508196717,-21.90812932786885 -11.48427981967213,-34.35836668852459 -19.642905819672126,-41.408795245901636 H47.191803651914086 L47.21091050437309,129.50199898986276 zM49.074890110930454,93.45586033412508 c0,-0.5859434754098364 0.4744868360655739,-1.0614918032786884 1.0614918032786884,-1.0614918032786884 h15.521133147540981 c0.587004967213115,0 1.0614918032786884,0.4755483278688527 1.0614918032786884,1.0614918032786884 v5.239523540983606 c0,0.5859434754098364 -0.4744868360655739,1.0614918032786884 -1.0614918032786884,1.0614918032786884 H50.13638191420915 c-0.587004967213115,0 -1.0614918032786884,-0.4755483278688527 -1.0614918032786884,-1.0614918032786884 V93.45586033412508 z" stroke-linecap="round" stroke-width="0" id="svg_41"/>
</g>
	<g stroke-width="0" id="svg_42">
<path style="stroke: none; stroke-width: 1; stroke-dasharray: none; stroke-linecap: butt; stroke-dashoffset: 0; stroke-linejoin: miter; stroke-miterlimit: 4; fill: rgb(40,73,7); fill-rule: nonzero; opacity: 1;" d="M82.37070470295703,88.09320892702655 c0.587004967213115,0 1.0614918032786884,-0.4755483278688527 1.0614918032786884,-1.0614918032786884 s-0.4744868360655739,-1.0614918032786884 -1.0614918032786884,-1.0614918032786884 H64.02069589967834 c0.8736077540983609,0.645387016393443 1.758891918032787,1.3544635409836068 2.6473605573770493,2.122983606557377 H82.37070470295703 z" stroke-linecap="round" stroke-width="0" id="svg_43"/>
</g>
	<g stroke-width="0" id="svg_44">
<path style="stroke: none; stroke-width: 1; stroke-dasharray: none; stroke-linecap: butt; stroke-dashoffset: 0; stroke-linejoin: miter; stroke-miterlimit: 4; fill: rgb(40,73,7); fill-rule: nonzero; opacity: 1;" d="M83.72622403437185,95.69242953708141 c-0.36196870491803296,0 -0.7133224918032788,-0.18469957377049193 -0.9118214590163937,-0.5169465081967213 l-2.7110500655737706,-4.536815967213115 c-0.30040218032786914,-0.5031471147540983 -0.13693244262295093,-1.154903081967213 0.3672761639344265,-1.4553052622950817 c0.4999626393442626,-0.30146367213114766 1.1538415901639343,-0.13587095081967213 1.4553052622950817,0.3672761639344265 l2.7110500655737706,4.536815967213115 c0.30040218032786914,0.5031471147540983 0.13693244262295093,1.154903081967213 -0.3672761639344265,1.4553052622950817 C84.099869149126,95.64466240593387 83.91198509994564,95.69242953708141 83.72622403437185,95.69242953708141 z" stroke-linecap="round" stroke-width="0" id="svg_45"/>
</g>
	<g stroke-width="0" id="svg_46">
<path style="stroke: none; stroke-width: 1; stroke-dasharray: none; stroke-linecap: butt; stroke-dashoffset: 0; stroke-linejoin: miter; stroke-miterlimit: 4; fill: rgb(40,73,7); fill-rule: nonzero; opacity: 1;" d="M87.47541820182931,105.34669552057585 c-0.32163201639344285,0 -0.6379565737704921,-0.14436288524590168 -0.8470704590163937,-0.4203507540983608 l-3.613318098360655,-4.762913721311475 c-0.3545382622950821,-0.46705639344262306 -0.2621884754098363,-1.1326117540983605 0.20380642622950818,-1.4871500163934428 c0.46705639344262306,-0.3545382622950821 1.131550262295082,-0.2621884754098363 1.4871500163934428,0.20380642622950818 l3.613318098360655,4.762913721311475 c0.3545382622950821,0.46705639344262306 0.2621884754098363,1.1326117540983605 -0.20380642622950818,1.4871500163934428 C87.9233677428129,105.27557556975617 87.69726998871454,105.34669552057585 87.47541820182931,105.34669552057585 z" stroke-linecap="round" stroke-width="0" id="svg_47"/>
</g>
	<g stroke-width="0" id="svg_48">
<path style="stroke: none; stroke-width: 1; stroke-dasharray: none; stroke-linecap: butt; stroke-dashoffset: 0; stroke-linejoin: miter; stroke-miterlimit: 4; fill: rgb(40,73,7); fill-rule: nonzero; opacity: 1;" d="M89.89774320958281,98.30687805871497 c-0.30783262295081987,0 -0.6124807704918035,-0.13268647540983605 -0.8215946557377046,-0.3885060000000002 l-2.6930047049180326,-3.2863786229508194 c-0.37258362295081987,-0.453257 -0.3046481475409836,-1.1219968360655737 0.1486088524590164,-1.4935189672131148 c0.4521955081967212,-0.37364511475409834 1.124119819672131,-0.3046481475409836 1.4935189672131148,0.1486088524590164 l2.6930047049180326,3.2863786229508194 c0.37258362295081987,0.453257 0.3046481475409836,1.1219968360655737 -0.1486088524590164,1.4935189672131148 C90.3722300456484,98.22832766527239 90.13339438991073,98.30687805871497 89.89774320958281,98.30687805871497 z" stroke-linecap="round" stroke-width="0" id="svg_49"/>
</g>
	<g stroke-width="0" id="svg_50">
<path style="stroke: none; stroke-width: 1; stroke-dasharray: none; stroke-linecap: butt; stroke-dashoffset: 0; stroke-linejoin: miter; stroke-miterlimit: 4; fill: rgb(40,73,7); fill-rule: nonzero; opacity: 1;" d="M97.98736770718745,103.82982070640372 c-0.2812953278688524,0 -0.5604676721311476,-0.11039514754098366 -0.7706430491803279,-0.33118544262295097 l-4.234290803278688,-4.462511540983606 c-0.4033668852459019,-0.4256582131147543 -0.38532152459016406,-1.0975825245901638 0.0392751967213115,-1.5009494098360654 c0.4256582131147543,-0.40230539344262306 1.096521032786885,-0.38532152459016406 1.5009494098360654,0.0392751967213115 l4.234290803278688,4.462511540983606 c0.4033668852459019,0.4256582131147543 0.38532152459016406,1.0975825245901638 -0.0392751967213115,1.5009494098360654 C98.51280614981044,103.73322495230536 98.2495561825973,103.82982070640372 97.98736770718745,103.82982070640372 z" stroke-linecap="round" stroke-width="0" id="svg_51"/>
</g>
	<g stroke-width="0" id="svg_52">
<path style="stroke: none; stroke-width: 1; stroke-dasharray: none; stroke-linecap: butt; stroke-dashoffset: 0; stroke-linejoin: miter; stroke-miterlimit: 4; fill: rgb(40,73,7); fill-rule: nonzero; opacity: 1;" d="M96.5681588027876,109.60433685454117 c-0.28766427868852457,0 -0.5753285573770491,-0.1167640983606558 -0.7844424426229506,-0.3471078196721313 l-4.516647622950819,-4.9603511967213105 c-0.3948749508196725,-0.4341501475409837 -0.3640916885245903,-1.1050129672131146 0.07005845901639345,-1.4998879180327869 c0.4330886557377051,-0.3948749508196725 1.103951475409836,-0.36303019672131154 1.4988264262295083,0.07005845901639345 l4.516647622950819,4.9603511967213105 c0.3948749508196725,0.4341501475409837 0.3640916885245903,1.1050129672131146 -0.07005845901639345,1.4998879180327869 C97.07873636016461,109.51304855945921 96.82291683557446,109.60433685454117 96.5681588027876,109.60433685454117 z" stroke-linecap="round" stroke-width="0" id="svg_53"/>
</g>
	<g stroke-width="0" id="svg_54">
<path style="stroke: none; stroke-width: 1; stroke-dasharray: none; stroke-linecap: butt; stroke-dashoffset: 0; stroke-linejoin: miter; stroke-miterlimit: 4; fill: rgb(40,73,7); fill-rule: nonzero; opacity: 1;" d="M104.95925060066907,102.78425358987454 c-0.2154828360655738,0 -0.4320271639344265,-0.0658124918032787 -0.6199112131147546,-0.20062195081967213 l-4.7331919508196725,-3.416942114754098 c-0.4755483278688527,-0.3428618524590165 -0.5827590000000002,-1.0062942295081967 -0.23989714754098374,-1.481842557377049 s1.005232737704918,-0.5838204918032789 1.481842557377049,-0.23883565573770493 l4.7331919508196725,3.416942114754098 c0.4755483278688527,0.3428618524590165 0.5827590000000002,1.0062942295081967 0.23989714754098374,1.481842557377049 C105.61312955148878,102.6313987702024 105.28937455148878,102.78425358987454 104.95925060066907,102.78425358987454 z" stroke-linecap="round" stroke-width="0" id="svg_55"/>
</g>
	<g stroke-width="0" id="svg_56">
<path style="stroke: none; stroke-width: 1; stroke-dasharray: none; stroke-linecap: butt; stroke-dashoffset: 0; stroke-linejoin: miter; stroke-miterlimit: 4; fill: rgb(40,73,7); fill-rule: nonzero; opacity: 1;" d="M96.56709517296974,94.08638771904623 c-0.21229836065573776,0 -0.4267197049180328,-0.06368950819672131 -0.6146037540983609,-0.1963759836065574 l-5.631214016393442,-4.005008573770492 c-0.4766098196721313,-0.3396773770491806 -0.5891279508196724,-1.002048262295082 -0.2483890819672132,-1.4807810655737703 c0.3375543934426232,-0.4787328032786886 0.9988637868852455,-0.5912509344262296 1.4807810655737703,-0.2494505737704919 l5.631214016393442,4.005008573770492 c0.4766098196721313,0.3396773770491806 0.5891279508196724,1.002048262295082 0.2483890819672132,1.4807810655737703 C97.22628158280577,93.93140991576757 96.89828061559263,94.08638771904623 96.56709517296974,94.08638771904623 z" stroke-linecap="round" stroke-width="0" id="svg_57"/>
</g>
	<g stroke-width="0" id="svg_58">
<path style="stroke: none; stroke-width: 1; stroke-dasharray: none; stroke-linecap: butt; stroke-dashoffset: 0; stroke-linejoin: miter; stroke-miterlimit: 4; fill: rgb(40,73,7); fill-rule: nonzero; opacity: 1;" d="M107.59917754079561,94.3740565618046 c-0.1687771967213116,0 -0.3407388688524594,-0.04033668852459021 -0.501024131147541,-0.12631752459016393 l-6.825392295081966,-3.6600237377049174 c-0.515885016393443,-0.2770493606557377 -0.7111995081967216,-0.9203133934426228 -0.4330886557377051,-1.4372599016393441 c0.2759878688524593,-0.515885016393443 0.9181904098360655,-0.7111995081967216 1.4372599016393441,-0.4341501475409837 l6.825392295081966,3.6600237377049174 c0.515885016393443,0.2770493606557377 0.7111995081967216,0.9203133934426228 0.4330886557377051,1.4372599016393441 C108.3443447866972,94.17131162737837 107.97706862276277,94.3740565618046 107.59917754079561,94.3740565618046 z" stroke-linecap="round" stroke-width="0" id="svg_59"/>
</g>
	<g stroke-width="0" id="svg_60">
<path style="stroke: none; stroke-width: 1; stroke-dasharray: none; stroke-linecap: butt; stroke-dashoffset: 0; stroke-linejoin: miter; stroke-miterlimit: 4; fill: rgb(40,73,7); fill-rule: nonzero; opacity: 1;" d="M81.01730245941172,83.47678095791383 c-0.18576106557377053,0 -0.37364511475409834,-0.04776713114754102 -0.5434838032786886,-0.15073183606557383 c-0.5042086065573772,-0.30040218032786914 -0.6676783442622953,-0.9521581475409836 -0.3672761639344265,-1.4553052622950817 l2.7099885737704916,-4.536815967213115 c0.30040218032786914,-0.5031471147540983 0.9532196393442623,-0.6687398360655747 1.4553052622950817,-0.3672761639344265 c0.5042086065573772,0.30040218032786914 0.6676783442622953,0.9521581475409836 0.3672761639344265,1.4553052622950817 l-2.7099885737704916,4.536815967213115 C81.72956345941174,83.29208138414333 81.37820967252651,83.47678095791383 81.01730245941172,83.47678095791383 z" stroke-linecap="round" stroke-width="0" id="svg_61"/>
</g>
	<g stroke-width="0" id="svg_62">
<path style="stroke: none; stroke-width: 1; stroke-dasharray: none; stroke-linecap: butt; stroke-dashoffset: 0; stroke-linejoin: miter; stroke-miterlimit: 4; fill: rgb(40,73,7); fill-rule: nonzero; opacity: 1;" d="M83.86210126965847,74.0496682650076 c-0.2229132786885247,0 -0.4490110327868853,-0.07005845901639345 -0.6411410491803281,-0.2154828360655738 c-0.4659949016393444,-0.3545382622950821 -0.5583446885245906,-1.0200936229508197 -0.20380642622950818,-1.4871500163934428 l3.613318098360655,-4.762913721311475 c0.3545382622950821,-0.4659949016393444 1.0179706393442622,-0.5594061803278684 1.4871500163934428,-0.20380642622950818 c0.4659949016393444,0.3545382622950821 0.5583446885245906,1.0200936229508197 0.20380642622950818,1.4871500163934428 l-3.613318098360655,4.762913721311475 C84.50005784342892,73.90530537976167 84.1837332860519,74.0496682650076 83.86210126965847,74.0496682650076 z" stroke-linecap="round" stroke-width="0" id="svg_63"/>
</g>
	<g stroke-width="0" id="svg_64">
<path style="stroke: none; stroke-width: 1; stroke-dasharray: none; stroke-linecap: butt; stroke-dashoffset: 0; stroke-linejoin: miter; stroke-miterlimit: 4; fill: rgb(40,73,7); fill-rule: nonzero; opacity: 1;" d="M87.20473908775966,79.61188459130008 c-0.2367126721311476,0 -0.4744868360655739,-0.07855039344262296 -0.6719243114754103,-0.24095863934426243 c-0.453257,-0.3715221311475412 -0.5201309836065574,-1.0402619672131146 -0.1486088524590164,-1.4935189672131148 l2.6930047049180326,-3.2863786229508194 c0.3715221311475412,-0.453257 1.0392004754098358,-0.5201309836065574 1.4935189672131148,-0.1486088524590164 c0.453257,0.3715221311475412 0.5201309836065574,1.0402619672131146 0.1486088524590164,1.4935189672131148 l-2.6930047049180326,3.2863786229508194 C87.81721985825146,79.47919811589026 87.51257171071046,79.61188459130008 87.20473908775966,79.61188459130008 z" stroke-linecap="round" stroke-width="0" id="svg_65"/>
</g>
	<g stroke-width="0" id="svg_66">
<path style="stroke: none; stroke-width: 1; stroke-dasharray: none; stroke-linecap: butt; stroke-dashoffset: 0; stroke-linejoin: miter; stroke-miterlimit: 4; fill: rgb(40,73,7); fill-rule: nonzero; opacity: 1;" d="M95.49498676716195,76.28092823446508 c-0.2621884754098363,0 -0.5254384426229506,-0.09659575409836073 -0.7303063606557376,-0.29084875409836075 c-0.4245967213114755,-0.4033668852459019 -0.44264208196721333,-1.0752911967213112 -0.0392751967213115,-1.5009494098360654 l4.234290803278688,-4.462511540983606 c0.4054898688524593,-0.4245967213114755 1.07635268852459,-0.44264208196721333 1.5009494098360654,-0.0392751967213115 s0.44264208196721333,1.0752911967213112 0.0392751967213115,1.5009494098360654 l-4.234290803278688,4.462511540983606 C96.05651593109638,76.1694715951208 95.77628209503081,76.28092823446508 95.49498676716195,76.28092823446508 z" stroke-linecap="round" stroke-width="0" id="svg_67"/>
</g>
	<g stroke-width="0" id="svg_68">
<path style="stroke: none; stroke-width: 1; stroke-dasharray: none; stroke-linecap: butt; stroke-dashoffset: 0; stroke-linejoin: miter; stroke-miterlimit: 4; fill: rgb(40,73,7); fill-rule: nonzero; opacity: 1;" d="M92.05151117983667,69.43324303068329 c-0.25475803278688525,0 -0.5105775573770489,-0.09128829508196726 -0.7143839836065574,-0.2770493606557377 c-0.4341501475409837,-0.3948749508196725 -0.46493340983606557,-1.0657377704918032 -0.07005845901639345,-1.4998879180327869 l4.516647622950819,-4.9603511967213105 c0.3948749508196725,-0.4341501475409837 1.0667992622950817,-0.46493340983606557 1.4988264262295083,-0.07005845901639345 c0.4341501475409837,0.3948749508196725 0.46493340983606557,1.0657377704918032 0.07005845901639345,1.4998879180327869 l-4.516647622950819,4.9603511967213105 C92.62683973721374,69.31647893232264 92.34023695032852,69.43324303068329 92.05151117983667,69.43324303068329 z" stroke-linecap="round" stroke-width="0" id="svg_69"/>
</g>
	<g stroke-width="0" id="svg_70">
<path style="stroke: none; stroke-width: 1; stroke-dasharray: none; stroke-linecap: butt; stroke-dashoffset: 0; stroke-linejoin: miter; stroke-miterlimit: 4; fill: rgb(40,73,7); fill-rule: nonzero; opacity: 1;" d="M100.77591263492587,78.03450833179377 c-0.3301239508196724,0 -0.6538789508196726,-0.15285481967213121 -0.861931344262295,-0.44051909836065595 c-0.3428618524590165,-0.4755483278688527 -0.2367126721311476,-1.1389807049180327 0.23989714754098374,-1.481842557377049 l4.7331919508196725,-3.416942114754098 c0.4723638524590164,-0.3439233442622953 1.137919213114754,-0.23565118032786891 1.481842557377049,0.23883565573770493 c0.3428618524590165,0.4755483278688527 0.2367126721311476,1.1389807049180327 -0.23989714754098374,1.481842557377049 l-4.7331919508196725,3.416942114754098 C101.20793979886025,77.9697573317938 100.99139547099145,78.03450833179377 100.77591263492587,78.03450833179377 z" stroke-linecap="round" stroke-width="0" id="svg_71"/>
</g>
	<g stroke-width="0" id="svg_72">
<path style="stroke: none; stroke-width: 1; stroke-dasharray: none; stroke-linecap: butt; stroke-dashoffset: 0; stroke-linejoin: miter; stroke-miterlimit: 4; fill: rgb(40,73,7); fill-rule: nonzero; opacity: 1;" d="M90.93800414018284,85.479812680912 c-0.33224693442622955,0 -0.6591864098360655,-0.1549778032786885 -0.8651158196721314,-0.44582655737704957 c-0.3396773770491806,-0.4776713114754098 -0.2282207377049181,-1.1400421967213115 0.2483890819672132,-1.4807810655737703 l5.631214016393442,-4.005008573770492 c0.4808557868852461,-0.33861588524590197 1.1421651803278687,-0.2282207377049181 1.4807810655737703,0.2494505737704919 c0.3396773770491806,0.4776713114754098 0.2282207377049181,1.1400421967213115 -0.2483890819672132,1.4807810655737703 l-5.631214016393442,4.005008573770492 C91.36578533690414,85.41612317271529 91.15030250083856,85.479812680912 90.93800414018284,85.479812680912 z" stroke-linecap="round" stroke-width="0" id="svg_73"/>
</g>
	<g stroke-width="0" id="svg_74">
<path style="stroke: none; stroke-width: 1; stroke-dasharray: none; stroke-linecap: butt; stroke-dashoffset: 0; stroke-linejoin: miter; stroke-miterlimit: 4; fill: rgb(40,73,7); fill-rule: nonzero; opacity: 1;" d="M100.77590822932018,84.40664453685736 c-0.3778910819672133,0 -0.7451672459016391,-0.20274493442622965 -0.9362357704918035,-0.5594061803278684 c-0.2781108524590164,-0.5169465081967213 -0.08279636065573774,-1.1602105409836063 0.4330886557377051,-1.4372599016393441 l6.825392295081966,-3.6600237377049174 c0.5169465081967213,-0.2759878688524593 1.1612720327868853,-0.08279636065573774 1.4372599016393441,0.4341501475409837 c0.2781108524590164,0.5169465081967213 0.08279636065573774,1.1602105409836063 -0.4330886557377051,1.4372599016393441 l-6.825392295081966,3.6600237377049174 C101.11664709817262,84.36630784833278 100.94468542604147,84.40664453685736 100.77590822932018,84.40664453685736 z" stroke-linecap="round" stroke-width="0" id="svg_75"/>
</g>
	<g stroke-width="0" id="svg_76">
<path style="stroke: none; stroke-width: 1; stroke-dasharray: none; stroke-linecap: butt; stroke-dashoffset: 0; stroke-linejoin: miter; stroke-miterlimit: 4; fill: rgb(40,73,7); fill-rule: nonzero; opacity: 1;" d="M87.51999936743573,91.15561375841321 c-0.2866027868852461,0 -0.5710825901639344,-0.1146411147540984 -0.780196475409836,-0.3428618524590165 l-1.6039141147540983,-1.7419080491803276 c-0.39699793442622955,-0.4309656721311476 -0.3704606393442627,-1.1028899836065569 0.061566524590163964,-1.4998879180327869 c0.4320271639344265,-0.39593644262295097 1.1028899836065569,-0.3693991475409838 1.4998879180327869,0.0626280163934426 l1.6039141147540983,1.7419080491803276 c0.39699793442622955,0.4309656721311476 0.3704606393442627,1.1028899836065569 -0.061566524590163964,1.4998879180327869 C88.03482289202594,91.06326397152793 87.77688038382922,91.15561375841321 87.51999936743573,91.15561375841321 z" stroke-linecap="round" stroke-width="0" id="svg_77"/>
</g>
	<g stroke-width="0" id="svg_78">
<path style="stroke: none; stroke-width: 1; stroke-dasharray: none; stroke-linecap: butt; stroke-dashoffset: 0; stroke-linejoin: miter; stroke-miterlimit: 4; fill: rgb(40,73,7); fill-rule: nonzero; opacity: 1;" d="M85.91502570452792,86.09335692402863 c-0.19956045901639363,0 -0.4033668852459019,-0.05625906557377053 -0.5838204918032789,-0.17514614754098373 c-0.48934772131147547,-0.32269350819672127 -0.6241571803278686,-0.9808184262295083 -0.30146367213114766,-1.4701661475409835 l1.9658828196721312,-2.981730475409836 c0.32269350819672127,-0.48828622950819667 0.9797569344262295,-0.6252186721311478 1.4712276393442623,-0.3025251639344265 c0.48934772131147547,0.32269350819672127 0.6241571803278686,0.9808184262295083 0.30146367213114766,1.4701661475409835 l-1.9658828196721312,2.981730475409836 C86.59756493403609,85.92564121911062 86.2600105405935,86.09335692402863 85.91502570452792,86.09335692402863 z" stroke-linecap="round" stroke-width="0" id="svg_79"/>
</g>
	<g stroke-width="0" id="svg_80">
<path style="stroke: none; stroke-width: 1; stroke-dasharray: none; stroke-linecap: butt; stroke-dashoffset: 0; stroke-linejoin: miter; stroke-miterlimit: 4; fill: rgb(40,73,7); fill-rule: nonzero; opacity: 1;" d="M109.15532465397877,87.65269080049069 h-4.9667201475409835 c-0.587004967213115,0 -1.0614918032786884,-0.4755483278688527 -1.0614918032786884,-1.0614918032786884 s0.4744868360655739,-1.0614918032786884 1.0614918032786884,-1.0614918032786884 h4.9667201475409835 c0.587004967213115,0 1.0614918032786884,0.4755483278688527 1.0614918032786884,1.0614918032786884 S109.74232962119191,87.65269080049069 109.15532465397877,87.65269080049069 z" stroke-linecap="round" stroke-width="0" id="svg_81"/>
</g>
	<g stroke-width="0" id="svg_82">
<path style="stroke: none; stroke-width: 1; stroke-dasharray: none; stroke-linecap: butt; stroke-dashoffset: 0; stroke-linejoin: miter; stroke-miterlimit: 4; fill: rgb(40,73,7); fill-rule: nonzero; opacity: 1;" d="M98.51811451586326,87.65269080049069 h-3.0231286557377044 c-0.587004967213115,0 -1.0614918032786884,-0.4755483278688527 -1.0614918032786884,-1.0614918032786884 s0.4744868360655739,-1.0614918032786884 1.0614918032786884,-1.0614918032786884 h3.0231286557377044 c0.587004967213115,0 1.0614918032786884,0.4755483278688527 1.0614918032786884,1.0614918032786884 S99.10511948307635,87.65269080049069 98.51811451586326,87.65269080049069 z" stroke-linecap="round" stroke-width="0" id="svg_83"/>
</g>
</g>
</g></g></svg>